<svg width="500" height="500" viewBox="0 0 500 500" fill="none" xmlns="http://www.w3.org/2000/svg">
<path d="M400.17 191.71C395.24 189.02 393 191.26 391.17 189.02C389.34 186.78 396.1 180.95 382.65 175.12C382.65 175.12 381.76 162.57 363.38 162.12C345 161.67 350 174.68 345 177.81C340 180.94 338.72 176.02 333.79 179.16C328.86 182.3 331.1 188.57 327.07 189.47C323.04 190.37 317.66 185.47 312.73 188.57C307.8 191.67 307.8 194.4 305.55 194.4C303.3 194.4 298.83 192.61 296.14 194.4C293.45 196.19 290.31 198.4 290.31 198.4H403.76C403.76 198.4 405.11 194.4 400.17 191.71Z" fill="#161A1D"/>
<path opacity="0.5" d="M400.17 191.71C395.24 189.02 393 191.26 391.17 189.02C389.34 186.78 396.1 180.95 382.65 175.12C382.65 175.12 381.76 162.57 363.38 162.12C345 161.67 350 174.68 345 177.81C340 180.94 338.72 176.02 333.79 179.16C328.86 182.3 331.1 188.57 327.07 189.47C323.04 190.37 317.66 185.47 312.73 188.57C307.8 191.67 307.8 194.4 305.55 194.4C303.3 194.4 298.83 192.61 296.14 194.4C293.45 196.19 290.31 198.4 290.31 198.4H403.76C403.76 198.4 405.11 194.4 400.17 191.71Z" fill="#161A1D"/>
<path d="M228.47 134.37C225.55 132.78 224.22 134.11 223.16 132.78C222.1 131.45 226.08 128 218.16 124.54C218.16 124.54 217.63 117.1 206.74 116.84C195.85 116.58 198.74 124.28 195.85 126.14C192.96 128 192.13 125.08 189.2 126.93C186.27 128.78 187.61 132.51 185.2 133.05C182.79 133.59 179.62 130.65 176.7 132.51C173.78 134.37 173.78 135.97 172.45 135.97C171.12 135.97 168.45 134.9 166.87 135.97C165.29 137.04 163.42 138.36 163.42 138.36H230.6C230.6 138.36 231.4 136 228.47 134.37Z" fill="#161A1D"/>
<path opacity="0.5" d="M228.47 134.37C225.55 132.78 224.22 134.11 223.16 132.78C222.1 131.45 226.08 128 218.16 124.54C218.16 124.54 217.63 117.1 206.74 116.84C195.85 116.58 198.74 124.28 195.85 126.14C192.96 128 192.13 125.08 189.2 126.93C186.27 128.78 187.61 132.51 185.2 133.05C182.79 133.59 179.62 130.65 176.7 132.51C173.78 134.37 173.78 135.97 172.45 135.97C171.12 135.97 168.45 134.9 166.87 135.97C165.29 137.04 163.42 138.36 163.42 138.36H230.6C230.6 138.36 231.4 136 228.47 134.37Z" fill="#161A1D"/>
<path d="M269.44 355.9C261.04 351.31 257.22 355.13 254.16 351.31C251.1 347.49 262.56 337.57 239.65 327.64C239.65 327.64 238.12 306.25 206.81 305.49C175.5 304.73 183.89 326.87 175.49 332.22C167.09 337.57 164.8 329.16 156.4 334.51C148 339.86 151.81 350.51 144.94 352.08C138.07 353.65 128.94 345.2 120.5 350.55C112.06 355.9 112.1 360.48 108.28 360.48C104.46 360.48 96.8201 357.42 92.2801 360.48C87.7401 363.54 82.3501 367.35 82.3501 367.35H275.55C275.55 367.35 277.84 360.48 269.44 355.9Z" fill="#161A1D"/>
<path opacity="0.5" d="M269.44 355.9C261.04 351.31 257.22 355.13 254.16 351.31C251.1 347.49 262.56 337.57 239.65 327.64C239.65 327.64 238.12 306.25 206.81 305.49C175.5 304.73 183.89 326.87 175.49 332.22C167.09 337.57 164.8 329.16 156.4 334.51C148 339.86 151.81 350.51 144.94 352.08C138.07 353.65 128.94 345.2 120.5 350.55C112.06 355.9 112.1 360.48 108.28 360.48C104.46 360.48 96.8201 357.42 92.2801 360.48C87.7401 363.54 82.3501 367.35 82.3501 367.35H275.55C275.55 367.35 277.84 360.48 269.44 355.9Z" fill="#161A1D"/>
<g opacity="0.5">
<path d="M400.17 191.71C395.24 189.02 393 191.26 391.17 189.02C389.34 186.78 396.1 180.95 382.65 175.12C382.65 175.12 381.76 162.57 363.38 162.12C345 161.67 350 174.68 345 177.81C340 180.94 338.72 176.02 333.79 179.16C328.86 182.3 331.1 188.57 327.07 189.47C323.04 190.37 317.66 185.47 312.73 188.57C307.8 191.67 307.8 194.4 305.55 194.4C303.3 194.4 298.83 192.61 296.14 194.4C293.45 196.19 290.31 198.4 290.31 198.4H403.76C403.76 198.4 405.11 194.4 400.17 191.71Z" fill="white"/>
<path opacity="0.5" d="M400.17 191.71C395.24 189.02 393 191.26 391.17 189.02C389.34 186.78 396.1 180.95 382.65 175.12C382.65 175.12 381.76 162.57 363.38 162.12C345 161.67 350 174.68 345 177.81C340 180.94 338.72 176.02 333.79 179.16C328.86 182.3 331.1 188.57 327.07 189.47C323.04 190.37 317.66 185.47 312.73 188.57C307.8 191.67 307.8 194.4 305.55 194.4C303.3 194.4 298.83 192.61 296.14 194.4C293.45 196.19 290.31 198.4 290.31 198.4H403.76C403.76 198.4 405.11 194.4 400.17 191.71Z" fill="white"/>
</g>
<g opacity="0.5">
<path d="M228.47 134.37C225.55 132.78 224.22 134.11 223.16 132.78C222.1 131.45 226.08 128 218.16 124.54C218.16 124.54 217.63 117.1 206.74 116.84C195.85 116.58 198.74 124.28 195.85 126.14C192.96 128 192.13 125.08 189.2 126.93C186.27 128.78 187.61 132.51 185.2 133.05C182.79 133.59 179.62 130.65 176.7 132.51C173.78 134.37 173.78 135.97 172.45 135.97C171.12 135.97 168.45 134.9 166.87 135.97C165.29 137.04 163.42 138.36 163.42 138.36H230.6C230.6 138.36 231.4 136 228.47 134.37Z" fill="white"/>
<path opacity="0.5" d="M228.47 134.37C225.55 132.78 224.22 134.11 223.16 132.78C222.1 131.45 226.08 128 218.16 124.54C218.16 124.54 217.63 117.1 206.74 116.84C195.85 116.58 198.74 124.28 195.85 126.14C192.96 128 192.13 125.08 189.2 126.93C186.27 128.78 187.61 132.51 185.2 133.05C182.79 133.59 179.62 130.65 176.7 132.51C173.78 134.37 173.78 135.97 172.45 135.97C171.12 135.97 168.45 134.9 166.87 135.97C165.29 137.04 163.42 138.36 163.42 138.36H230.6C230.6 138.36 231.4 136 228.47 134.37Z" fill="white"/>
</g>
<g opacity="0.5">
<path d="M269.44 355.9C261.04 351.31 257.22 355.13 254.16 351.31C251.1 347.49 262.56 337.57 239.65 327.64C239.65 327.64 238.12 306.25 206.81 305.49C175.5 304.73 183.89 326.87 175.49 332.22C167.09 337.57 164.8 329.16 156.4 334.51C148 339.86 151.81 350.51 144.94 352.08C138.07 353.65 128.94 345.2 120.5 350.55C112.06 355.9 112.1 360.48 108.28 360.48C104.46 360.48 96.8201 357.42 92.2801 360.48C87.7401 363.54 82.3501 367.35 82.3501 367.35H275.55C275.55 367.35 277.84 360.48 269.44 355.9Z" fill="white"/>
<path opacity="0.5" d="M269.44 355.9C261.04 351.31 257.22 355.13 254.16 351.31C251.1 347.49 262.56 337.57 239.65 327.64C239.65 327.64 238.12 306.25 206.81 305.49C175.5 304.73 183.89 326.87 175.49 332.22C167.09 337.57 164.8 329.16 156.4 334.51C148 339.86 151.81 350.51 144.94 352.08C138.07 353.65 128.94 345.2 120.5 350.55C112.06 355.9 112.1 360.48 108.28 360.48C104.46 360.48 96.8201 357.42 92.2801 360.48C87.7401 363.54 82.3501 367.35 82.3501 367.35H275.55C275.55 367.35 277.84 360.48 269.44 355.9Z" fill="white"/>
</g>
<path d="M128.27 323.33C128.27 323.33 123.33 319 118.22 317.52C113.11 316.04 107.22 316.01 102.13 314.62C97.0397 313.23 93.9997 312.06 93.9997 312.06L93.7397 316.66L128.06 325.93L151.54 319.43L153.88 314.66C151.321 315.851 148.638 316.753 145.88 317.35C140.77 318.56 135.05 318.56 131.88 319.78C128.71 321 128.27 323.33 128.27 323.33Z" fill="white" stroke="#263238" stroke-linecap="round" stroke-linejoin="round"/>
<path d="M93.2598 313.1C99.9684 315.152 106.845 316.608 113.81 317.45C119.048 318.161 124.022 320.183 128.27 323.33C131.725 321.122 135.703 319.866 139.8 319.69C144.728 319.317 149.589 318.326 154.27 316.74L152.8 319.74L127.58 324.68L92.7397 315.58L93.2598 313.1Z" fill="white" stroke="#263238" stroke-linecap="round" stroke-linejoin="round"/>
<path d="M92.3099 314.14C97.6403 316.183 103.226 317.485 108.91 318.01C118.19 318.71 128.01 323.33 128.01 323.33C131.808 321.414 135.978 320.35 140.23 320.21C145.001 320.169 149.749 319.527 154.36 318.3C154.216 318.779 154.18 319.284 154.255 319.778C154.329 320.273 154.512 320.744 154.79 321.16L127.92 326.88L92.1299 316.48L92.3099 314.14Z" fill="white" stroke="#263238" stroke-linecap="round" stroke-linejoin="round"/>
<path d="M91.8699 316.05L126.8 324.8V326L129.74 326.08V324.7L155.57 320.62C155.57 320.62 156.7 320.36 155.74 321.62C154.78 322.88 138.15 337.4 138.15 337.4L119.69 339.3L91.6899 333.15L91.8699 316.05Z" fill="#161A1D"/>
<mask id="mask0_576_1556" style="mask-type:luminance" maskUnits="userSpaceOnUse" x="91" y="316" width="66" height="24">
<path d="M91.8699 316.05L126.8 324.8V326L129.74 326.08V324.7L155.57 320.62C155.57 320.62 156.7 320.36 155.74 321.62C154.78 322.88 138.15 337.4 138.15 337.4L119.69 339.3L91.6899 333.15L91.8699 316.05Z" fill="white"/>
</mask>
<g mask="url(#mask0_576_1556)">
<path opacity="0.3" d="M126.8 326.02V324.8L91.8697 316.05L91.6997 333.21L119.69 339.36L120.19 339.31L127.58 326.04L126.8 326.02Z" fill="black"/>
</g>
<path d="M91.8699 316.05L126.8 324.8V326L129.74 326.08V324.7L155.57 320.62C155.57 320.62 156.7 320.36 155.74 321.62C154.78 322.88 138.15 337.4 138.15 337.4L119.69 339.3L91.6899 333.15L91.8699 316.05Z" stroke="#263238" stroke-linecap="round" stroke-linejoin="round"/>
<path d="M126.8 326.02L119.08 339.36L120.56 339.45L129.74 326.1L126.8 326.02Z" fill="#161A1D" stroke="#263238" stroke-linecap="round" stroke-linejoin="round"/>
<path d="M125.56 407.35C125.56 407.35 123.88 410.87 121.64 412.48C119.4 414.09 116.54 414.85 114.28 416.4C113.052 417.23 111.877 418.135 110.76 419.11L109.86 416.05L125 405.62L137.55 407.14L139.49 410.06C138.088 409.585 136.628 409.302 135.15 409.22C132.46 409.03 129.67 409.73 127.9 409.3C127.39 409.168 126.915 408.925 126.511 408.588C126.106 408.251 125.781 407.828 125.56 407.35Z" fill="white" stroke="#263238" stroke-linecap="round" stroke-linejoin="round"/>
<path d="M110.21 418.5C113.086 416.337 116.204 414.515 119.5 413.07C122.048 411.815 124.16 409.822 125.56 407.35C127.477 408.349 129.667 408.7 131.8 408.35C134.312 408.004 136.863 408.079 139.35 408.57L138.12 406.7L125 406.5L109.54 416.87L110.21 418.5Z" fill="white" stroke="#263238" stroke-linecap="round" stroke-linejoin="round"/>
<path d="M109.57 417.92C111.758 415.946 114.281 414.378 117.02 413.29C121.42 411.69 125.44 407.38 125.44 407.38C127.5 408.185 129.745 408.397 131.92 407.99C134.281 407.437 136.72 407.292 139.13 407.56C138.827 406.94 138.732 406.238 138.86 405.56L124.8 405L109.09 416.37L109.57 417.92Z" fill="white" stroke="#263238" stroke-linecap="round" stroke-linejoin="round"/>
<path d="M109 416.69L124.56 406.53L124.35 405.72L125.78 405.3L126.01 406.23L139.29 405.83C139.29 405.83 139.88 405.83 139.2 405.11C138.52 404.39 128 396.62 128 396.62L118.67 397.62L106.05 405.17L109 416.69Z" fill="#161A1D"/>
<mask id="mask1_576_1556" style="mask-type:luminance" maskUnits="userSpaceOnUse" x="106" y="396" width="34" height="21">
<path d="M109 416.69L124.56 406.53L124.35 405.72L125.78 405.3L126.01 406.23L139.29 405.83C139.29 405.83 139.88 405.83 139.2 405.11C138.52 404.39 128 396.62 128 396.62L118.67 397.62L106.05 405.17L109 416.69Z" fill="white"/>
</mask>
<g mask="url(#mask1_576_1556)">
<path opacity="0.3" d="M124.39 405.72L124.6 406.53L109.04 416.69L106.06 405.14L118.68 397.59L118.93 397.56L124.77 405.61L124.39 405.72Z" fill="black"/>
</g>
<path d="M109 416.69L124.56 406.53L124.35 405.72L125.78 405.3L126.01 406.23L139.29 405.83C139.29 405.83 139.88 405.83 139.2 405.11C138.52 404.39 128 396.62 128 396.62L118.67 397.62L106.05 405.17L109 416.69Z" stroke="#263238" stroke-linecap="round" stroke-linejoin="round"/>
<path d="M124.39 405.72L118.39 397.66L119.09 397.42L125.82 405.3L124.39 405.72Z" fill="#161A1D" stroke="#263238" stroke-linecap="round" stroke-linejoin="round"/>
<path d="M358.22 299.71L386.46 328.31L326.16 345.3L322.17 316.63L358.22 299.71Z" fill="#161A1D" stroke="#263238" stroke-linecap="round" stroke-linejoin="round"/>
<path d="M383.21 332.44L320.84 350.77L325.87 317.81L357.34 303.77L383.21 332.44Z" fill="white" stroke="#263238" stroke-linecap="round" stroke-linejoin="round"/>
<path d="M358.82 305.55L382.02 335.55L323.5 352.54L330.3 316.48L358.82 305.55Z" fill="white"/>
<mask id="mask2_576_1556" style="mask-type:luminance" maskUnits="userSpaceOnUse" x="323" y="305" width="60" height="48">
<path d="M358.82 305.55L382.02 335.55L323.5 352.54L330.3 316.48L358.82 305.55Z" fill="white"/>
</mask>
<g mask="url(#mask2_576_1556)">
<path opacity="0.17" d="M358.82 305.55L382.02 335.55L323.5 352.54L330.3 316.48L358.82 305.55Z" fill="black"/>
</g>
<path d="M358.82 305.55L382.02 335.55L323.5 352.54L330.3 316.48L358.82 305.55Z" stroke="#263238" stroke-linecap="round" stroke-linejoin="round"/>
<path d="M358.82 305.55L348.18 342.49L306.65 355.06L322.61 321.06L358.82 305.55Z" fill="white" stroke="#263238" stroke-linecap="round" stroke-linejoin="round"/>
<path d="M345.23 339.54L305.18 352.99L303.99 347.37L341.09 334.07L345.23 339.54Z" fill="white" stroke="#263238" stroke-linecap="round" stroke-linejoin="round"/>
<path d="M357.79 300.52L384.39 328.16L383.21 332.44L358.82 305.55L345.23 339.54L341.09 334.07L357.79 300.52Z" fill="white" stroke="#263238" stroke-linecap="round" stroke-linejoin="round"/>
<path d="M358.22 299.71L341.24 335.11L302.07 348.41L322.17 316.63L358.22 299.71Z" fill="#161A1D"/>
<mask id="mask3_576_1556" style="mask-type:luminance" maskUnits="userSpaceOnUse" x="302" y="299" width="57" height="50">
<path d="M358.22 299.71L341.24 335.11L302.07 348.41L322.17 316.63L358.22 299.71Z" fill="white"/>
</mask>
<g mask="url(#mask3_576_1556)">
<path opacity="0.3" d="M358.22 299.71L341.24 335.11L302.07 348.41L322.17 316.63L358.22 299.71Z" fill="black"/>
</g>
<path d="M358.22 299.71L341.24 335.11L302.07 348.41L322.17 316.63L358.22 299.71Z" stroke="#263238" stroke-linecap="round" stroke-linejoin="round"/>
<path d="M320.55 319.89L352.06 305.51" stroke="#263238" stroke-linecap="round" stroke-linejoin="round"/>
<path d="M227.02 402.48L255.94 366.9L196.28 364.1L191.53 393.99L227.02 402.48Z" fill="#161A1D" stroke="#263238" stroke-linecap="round" stroke-linejoin="round"/>
<path d="M252.81 363.5L191.12 359.85L195.24 391.92L226.25 398.6L252.81 363.5Z" fill="white" stroke="#263238" stroke-linecap="round" stroke-linejoin="round"/>
<path d="M227.77 396.45L251.71 360.64L193.82 357.42L199.63 392.2L227.77 396.45Z" fill="white"/>
<mask id="mask4_576_1556" style="mask-type:luminance" maskUnits="userSpaceOnUse" x="193" y="357" width="59" height="40">
<path d="M227.77 396.45L251.71 360.64L193.82 357.42L199.63 392.2L227.77 396.45Z" fill="white"/>
</mask>
<g mask="url(#mask4_576_1556)">
<path opacity="0.17" d="M227.77 396.45L251.71 360.64L193.82 357.42L199.63 392.2L227.77 396.45Z" fill="black"/>
</g>
<path d="M227.77 396.45L251.71 360.64L193.82 357.42L199.63 392.2L227.77 396.45Z" stroke="#263238" stroke-linecap="round" stroke-linejoin="round"/>
<path d="M227.77 396.45L218.16 361.69L177.09 358.9L192.09 389.41L227.77 396.45Z" fill="white" stroke="#263238" stroke-linecap="round" stroke-linejoin="round"/>
<path d="M215.13 365.38L175.56 361.34L174.23 367.29L210.86 371.88L215.13 365.38Z" fill="white" stroke="#263238" stroke-linecap="round" stroke-linejoin="round"/>
<path d="M226.6 401.77L253.87 367.54L252.81 363.5L227.77 396.45L215.13 365.38L210.86 371.88L226.6 401.77Z" fill="white" stroke="#263238" stroke-linecap="round" stroke-linejoin="round"/>
<path d="M227.02 402.48L211.03 370.8L172.34 366.7L191.53 393.99L227.02 402.48Z" fill="#161A1D"/>
<mask id="mask5_576_1556" style="mask-type:luminance" maskUnits="userSpaceOnUse" x="172" y="366" width="56" height="37">
<path d="M227.02 402.48L211.03 370.8L172.34 366.7L191.53 393.99L227.02 402.48Z" fill="white"/>
</mask>
<g mask="url(#mask5_576_1556)">
<path opacity="0.3" d="M227.02 402.48L211.03 370.8L172.34 366.7L191.53 393.99L227.02 402.48Z" fill="black"/>
</g>
<path d="M227.02 402.48L211.03 370.8L172.34 366.7L191.53 393.99L227.02 402.48Z" stroke="#263238" stroke-linecap="round" stroke-linejoin="round"/>
<path d="M188.58 390.05L220.09 396.68" stroke="#263238" stroke-linecap="round" stroke-linejoin="round"/>
<path d="M250.47 163.23C250.47 163.23 237.37 169.56 232.13 177.23C226.89 184.9 228.42 199.06 236.49 203.64C244.56 208.22 272.73 225.04 292.6 222.64C312.47 220.24 309.41 199.93 299.37 191.85C289.33 183.77 275.79 176.57 275.79 176.57C275.79 176.57 275.14 172.21 274.26 170.68C273.38 169.15 263.35 159.3 250.47 163.23Z" fill="#263238" stroke="#263238" stroke-linecap="round" stroke-linejoin="round"/>
<path d="M303.65 196.63C273.91 187.53 254.32 203.82 248.18 210.06C260.48 216.45 278.6 224.3 292.6 222.61C309.22 220.6 309.79 206.05 303.65 196.63Z" fill="white" stroke="#263238" stroke-linecap="round" stroke-linejoin="round"/>
<path d="M283.43 194.23C283.43 194.23 300.9 208.23 294.78 222.17" stroke="#263238" stroke-linecap="round" stroke-linejoin="round"/>
<path d="M226.09 157.13L219.09 189.78H224.72L238.6 164.05C238.6 164.05 235.89 155.8 226.09 157.13Z" fill="white" stroke="#263238" stroke-linecap="round" stroke-linejoin="round"/>
<path d="M314.07 141.29C308.34 134.29 300.77 127.8 286.9 126.69C286.9 126.69 275.08 126.32 259 133.16C246.43 138.5 233 150.16 226.09 157.16C232.27 158.73 235.95 161.26 238.61 164.08C241.35 161.47 243.74 159.2 245.5 157.77C251.42 152.96 260.11 148.9 260.11 148.9C260.11 148.9 250.68 161.83 248.83 165.16C246.98 168.49 248.28 173.85 258.07 175.33C267.86 176.81 270.27 174.96 274.15 172.74C278.03 170.52 282.84 168.49 284.69 168.49C288.387 168.752 292.056 167.689 295.04 165.49C299.84 162.16 301.88 152.74 303.54 152C304.68 151.49 314.77 164.65 322.63 174.53L323.31 174.18C326.73 172.42 329.4 168.83 331.23 165.67C324.87 156.38 317.78 145.83 314.07 141.29Z" fill="#161A1D" stroke="#263238" stroke-linecap="round" stroke-linejoin="round"/>
<path d="M280.94 132.9C280.94 132.9 277.02 142.33 284.87 145.9" stroke="#263238" stroke-linecap="round" stroke-linejoin="round"/>
<path d="M260.11 148.87L268.63 146.35" stroke="#263238" stroke-linecap="round" stroke-linejoin="round"/>
<path d="M260 165.32C260 165.32 265.37 170.06 277.94 164.7" stroke="#263238" stroke-linecap="round" stroke-linejoin="round"/>
<path d="M309.05 148.41C305.95 148.82 303.54 152.01 303.54 152.01C307.117 151.248 310.755 150.803 314.41 150.68" stroke="#263238" stroke-linecap="round" stroke-linejoin="round"/>
<path d="M260.39 149.65C260.39 149.65 266.16 149.65 271.73 149.44" stroke="#263238" stroke-linecap="round" stroke-linejoin="round"/>
<path d="M263.48 162.84C263.48 162.84 264.1 166.56 272.14 166.14" stroke="#263238" stroke-linecap="round" stroke-linejoin="round"/>
<path d="M284.87 129.83C284.87 129.83 283.58 136.48 284.5 139.99C285.42 143.5 288.75 147.57 291.16 143.32C293.57 139.07 294.85 134.32 294.85 132.05C294.85 129.78 286.53 125.58 284.87 129.83Z" fill="white" stroke="#263238" stroke-linecap="round" stroke-linejoin="round"/>
<path d="M303.54 121.51C303.54 121.51 308.71 120.4 313.15 114.67C317.59 108.94 311.86 108.21 310.01 102.67C308.16 97.1301 314.67 98.9701 305.25 89.3601C295.83 79.7501 280.48 83.0801 273.25 86.2201C266.02 89.3601 266.25 99.9001 261.06 100.64C255.87 101.38 253.66 96.3901 247.38 96.3901C241.1 96.3901 234.44 103.04 237.03 108.58C239.62 114.12 244.61 111.73 244.98 110.8C245.35 109.87 242.39 110.99 242.2 108.21C242.01 105.43 248.85 106.92 250.89 110.62C252.54 113.62 249.51 117.88 249.61 121.03C249.82 127.35 257.56 131.39 262.53 132.26C269.24 133.43 277.4 133.02 283.48 129.69C290.95 125.59 287.48 117.09 292.98 114.87C298.48 112.65 301.3 115.98 301.3 115.98L303.54 121.51Z" fill="#263238" stroke="#263238" stroke-linecap="round" stroke-linejoin="round"/>
<path d="M247.05 99.8199C246.098 99.4062 245.05 99.2629 244.021 99.4058C242.993 99.5487 242.024 99.9722 241.22 100.63" stroke="white" stroke-linecap="round" stroke-linejoin="round"/>
<path d="M296.37 105C296.37 105 296.37 94 288.65 91.76C280.93 89.52 272.11 99.48 267.65 105.76C263.19 112.04 256.65 110.54 251.84 103.92C251.388 103.282 250.886 102.68 250.34 102.12" stroke="white" stroke-linecap="round" stroke-linejoin="round"/>
<path d="M252.62 125.63C256.62 128.2 259.62 128.94 265.49 127.1C271.36 125.26 270.64 115.7 275.78 110.56C280.92 105.42 290.12 107.25 290.12 107.25C290.12 107.25 279.83 101.73 271.74 107.61C263.65 113.49 264.38 123.42 257.03 125.26" stroke="white" stroke-linecap="round" stroke-linejoin="round"/>
<path d="M301.52 106.14C301.52 106.14 308.52 104.3 308.14 98.05" stroke="white" stroke-linecap="round" stroke-linejoin="round"/>
<path d="M243.92 177C243.92 177 262.92 179.4 272.52 186" stroke="white" stroke-linecap="round" stroke-linejoin="round"/>
<path d="M297.51 108.52C296.327 108.181 295.07 108.189 293.891 108.543C292.712 108.898 291.66 109.584 290.86 110.52C287.72 113.84 287.86 115.52 285.24 117.59C284.459 118.273 283.474 118.68 282.438 118.747C281.402 118.814 280.373 118.537 279.51 117.96C278.4 117.41 277.11 117.78 276.74 120.36C276.37 122.94 279.88 124.98 280.44 124.98C280.997 125.01 281.551 125.074 282.1 125.17C282.1 125.17 282.1 129.79 285.24 132.56C288.38 135.33 294.67 139.77 298.92 138.85C303.17 137.93 304.83 128.13 304.83 123.14C304.675 118.081 303.678 113.082 301.88 108.35C300.58 105.43 297.51 108.52 297.51 108.52Z" fill="white" stroke="#263238" stroke-linecap="round" stroke-linejoin="round"/>
<path d="M294 119.75C294 120.75 293.64 121.61 293.18 121.61C292.72 121.61 292.35 120.78 292.35 119.75C292.35 118.72 292.72 117.9 293.18 117.9C293.64 117.9 294 118.73 294 119.75Z" fill="#263238"/>
<path d="M300.59 119.13C300.59 120.13 300.22 120.99 299.77 120.99C299.32 120.99 298.94 120.16 298.94 119.13C298.94 118.1 299.31 117.28 299.77 117.28C300.23 117.28 300.59 118.11 300.59 119.13Z" fill="#263238"/>
<path d="M290.08 116C290.08 116 291.31 114.15 294.41 115" stroke="#263238" stroke-linecap="round" stroke-linejoin="round"/>
<path d="M297.91 115C297.91 115 299.97 112.73 301.83 115" stroke="#263238" stroke-linecap="round" stroke-linejoin="round"/>
<path d="M297.71 119.13C297.71 119.13 297.91 123.26 299.15 123.26C300.39 123.26 299.97 125.11 298.32 125.73" stroke="#263238" stroke-linecap="round" stroke-linejoin="round"/>
<path d="M296.67 129.86C296.67 129.86 292.96 131.51 291.52 127.79" stroke="#263238" stroke-linecap="round" stroke-linejoin="round"/>
<path d="M297.54 221.14C297.54 221.14 276.54 202.72 254.78 196.45C233.02 190.18 207.98 193.13 186.23 187.24C164.48 181.35 151.96 173.24 151.96 173.24L150.85 192.77L296.85 232.21L396.73 204.57L406.68 184.3C406.68 184.3 394.52 190.56 372.77 195.72C351.02 200.88 326.65 200.87 313 206C299.35 211.13 297.54 221.14 297.54 221.14Z" fill="white" stroke="#263238" stroke-linecap="round" stroke-linejoin="round"/>
<path d="M148.64 177.65C148.64 177.65 173 192.4 227.88 197.56C264.03 200.95 297.54 221.14 297.54 221.14C312.224 211.752 329.128 206.412 346.54 205.66C375.29 204.56 408.09 193.13 408.09 193.13L401.84 206L294.59 227L146.43 188.3L148.64 177.65Z" fill="white" stroke="#263238" stroke-linecap="round" stroke-linejoin="round"/>
<path d="M144.59 182.08C165.323 191.444 187.514 197.168 210.19 199C249.62 201.95 296.43 221.11 296.43 221.11C296.43 221.11 321.12 207.85 348.43 207.85C368.714 207.677 388.896 204.952 408.5 199.74C407.891 201.777 407.74 203.924 408.058 206.026C408.376 208.129 409.155 210.134 410.34 211.9L296.06 236.25L143.85 192L144.59 182.08Z" fill="white" stroke="#263238" stroke-linecap="round" stroke-linejoin="round"/>
<path d="M145.33 190.83L291.27 227.41V232.57L303.8 232.94V227L413.63 209.68C413.63 209.68 418.42 208.57 414.37 214.1C410.32 219.63 339.55 281.18 339.55 281.18L261.05 289.29L142 263.16L142.71 192.85C142.712 192.531 142.787 192.217 142.929 191.931C143.07 191.646 143.275 191.396 143.528 191.202C143.78 191.007 144.074 190.872 144.386 190.808C144.698 190.744 145.021 190.751 145.33 190.83Z" fill="#161A1D"/>
<mask id="mask6_576_1556" style="mask-type:luminance" maskUnits="userSpaceOnUse" x="142" y="190" width="274" height="100">
<path d="M145.33 190.83L291.27 227.41V232.57L303.8 232.94V227L413.63 209.68C413.63 209.68 418.42 208.57 414.37 214.1C410.32 219.63 339.55 281.18 339.55 281.18L261.05 289.29L142 263.16L142.71 192.85C142.712 192.531 142.787 192.217 142.929 191.931C143.07 191.646 143.275 191.396 143.528 191.202C143.78 191.007 144.074 190.872 144.386 190.808C144.698 190.744 145.021 190.751 145.33 190.83Z" fill="white"/>
</mask>
<g mask="url(#mask6_576_1556)">
<path opacity="0.3" d="M291.27 232.57V227.41L142.74 190.19L142.01 263.16L261.05 289.33L263.18 289.11L294.6 232.67L291.27 232.57Z" fill="black"/>
</g>
<path d="M145.33 190.83L291.27 227.41V232.57L303.8 232.94V227L413.63 209.68C413.63 209.68 418.42 208.57 414.37 214.1C410.32 219.63 339.55 281.18 339.55 281.18L261.05 289.29L142 263.16L142.71 192.85C142.712 192.531 142.787 192.217 142.929 191.931C143.07 191.646 143.275 191.396 143.528 191.202C143.78 191.007 144.074 190.872 144.386 190.808C144.698 190.744 145.021 190.751 145.33 190.83Z" stroke="#263238" stroke-linecap="round" stroke-linejoin="round"/>
<path d="M291.27 232.57L258.47 289.33L264.74 289.69L303.8 232.94L291.27 232.57Z" fill="#161A1D" stroke="#263238" stroke-linecap="round" stroke-linejoin="round"/>
<path d="M400.74 212C400.74 212 410.53 213.83 408.49 220.36L414.37 214.12C414.37 214.12 417.06 210.77 415.83 210.12C414.6 209.47 400.74 212 400.74 212Z" fill="#263238"/>
<path d="M158.86 194.54C158.86 194.54 145.01 198.37 142.86 208.72L142.74 192.85C142.74 192.85 143.16 190.46 145.35 190.85C147.54 191.24 158.86 194.54 158.86 194.54Z" fill="#263238"/>
<path d="M142.14 258.3L149.1 264.93L142.01 263.16L142.14 258.3Z" fill="#263238"/>
<path d="M334.54 281.65L343.98 277.01L339.01 281.32L334.54 281.65Z" fill="#263238"/>
<path d="M331.23 165.68L357.79 197.52L351.1 198.58L322.63 174.58C322.63 174.58 330 169.75 331.23 165.68Z" fill="white" stroke="#263238" stroke-linecap="round" stroke-linejoin="round"/>
<path d="M213.45 186.86C213.45 186.86 212.12 185.25 211.78 186.69C211.44 188.13 208.43 193.13 210.78 193.48C213.13 193.83 214.46 188.12 214.46 188.12L213.45 186.86Z" fill="white" stroke="#263238" stroke-linecap="round" stroke-linejoin="round"/>
<path d="M216.63 186.67C216.63 186.67 215.29 185.06 214.96 186.49C214.63 187.92 211.61 192.93 213.96 193.29C216.31 193.65 217.65 187.92 217.65 187.92L216.63 186.67Z" fill="white" stroke="#263238" stroke-linecap="round" stroke-linejoin="round"/>
<path d="M219.82 186.55C219.82 186.55 218.23 184.76 217.82 186.35C217.41 187.94 213.82 193.5 216.63 193.9C219.44 194.3 221 187.9 221 187.9L219.82 186.55Z" fill="white" stroke="#263238" stroke-linecap="round" stroke-linejoin="round"/>
<path d="M222.6 187.15L227.96 192.31H221.61L222.6 187.15Z" fill="white" stroke="#263238" stroke-linecap="round" stroke-linejoin="round"/>
<path d="M222.6 187.15C222.6 187.15 221.01 185.36 220.6 186.95C220.19 188.54 216.6 194.1 219.41 194.49C222.22 194.88 223.78 188.49 223.78 188.49L222.6 187.15Z" fill="white" stroke="#263238" stroke-linecap="round" stroke-linejoin="round"/>
<path d="M365 191.78C365 191.78 366.07 189.98 366.63 191.34C367.19 192.7 370.94 197.18 368.69 197.9C366.44 198.62 364.21 193.18 364.21 193.18L365 191.78Z" fill="white" stroke="#263238" stroke-linecap="round" stroke-linejoin="round"/>
<path d="M361.86 192.08C361.86 192.08 362.93 190.28 363.49 191.64C364.05 193 367.81 197.48 365.55 198.2C363.29 198.92 361.07 193.48 361.07 193.48L361.86 192.08Z" fill="white" stroke="#263238" stroke-linecap="round" stroke-linejoin="round"/>
<path d="M358.7 192.47C358.7 192.47 359.99 190.47 360.63 191.96C361.27 193.45 365.63 198.4 362.99 199.23C360.35 200.06 357.74 194.03 357.74 194.03L358.7 192.47Z" fill="white" stroke="#263238" stroke-linecap="round" stroke-linejoin="round"/>
<path d="M356.05 193.5L351.56 199.44L357.84 198.44L356.05 193.5Z" fill="white" stroke="#263238" stroke-linecap="round" stroke-linejoin="round"/>
<path d="M356.05 193.5C356.05 193.5 357.33 191.5 357.98 192.99C358.63 194.48 362.98 199.42 360.34 200.25C357.7 201.08 355.09 195.06 355.09 195.06L356.05 193.5Z" fill="white" stroke="#263238" stroke-linecap="round" stroke-linejoin="round"/>
<path d="M173.87 246.91L180.27 245.91L173.87 244.91C173.307 244.825 172.785 244.561 172.382 244.158C171.979 243.755 171.716 243.234 171.63 242.67L170.63 236.26L169.63 242.67C169.545 243.232 169.283 243.753 168.882 244.155C168.481 244.558 167.962 244.823 167.4 244.91L160.99 245.91L167.4 246.91C167.96 247.002 168.477 247.268 168.877 247.67C169.278 248.072 169.541 248.59 169.63 249.15L170.63 255.56L171.63 249.15C171.72 248.588 171.985 248.069 172.387 247.667C172.789 247.265 173.308 247 173.87 246.91Z" fill="white"/>
<path d="M126.06 290.33L132.47 289.33L126.06 288.33C125.499 288.239 124.981 287.973 124.579 287.571C124.177 287.169 123.911 286.651 123.82 286.09L122.82 279.68L121.82 286.09C121.733 286.653 121.469 287.174 121.066 287.576C120.664 287.979 120.143 288.243 119.58 288.33L113.17 289.33L119.58 290.33C120.143 290.417 120.664 290.681 121.066 291.084C121.469 291.486 121.733 292.007 121.82 292.57L122.82 298.98L123.82 292.57C123.911 292.009 124.177 291.491 124.579 291.089C124.981 290.687 125.499 290.421 126.06 290.33Z" fill="#161A1D"/>
<path opacity="0.5" d="M126.06 290.33L132.47 289.33L126.06 288.33C125.499 288.239 124.981 287.973 124.579 287.571C124.177 287.169 123.911 286.651 123.82 286.09L122.82 279.68L121.82 286.09C121.733 286.653 121.469 287.174 121.066 287.576C120.664 287.979 120.143 288.243 119.58 288.33L113.17 289.33L119.58 290.33C120.143 290.417 120.664 290.681 121.066 291.084C121.469 291.486 121.733 292.007 121.82 292.57L122.82 298.98L123.82 292.57C123.911 292.009 124.177 291.491 124.579 291.089C124.981 290.687 125.499 290.421 126.06 290.33Z" fill="white"/>
<path d="M285.66 317.06L292.07 316.06L285.66 315.06C285.098 314.974 284.579 314.711 284.176 314.31C283.774 313.909 283.509 313.391 283.42 312.83L282.42 306.42L281.42 312.83C281.331 313.391 281.066 313.909 280.664 314.31C280.261 314.711 279.742 314.974 279.18 315.06L272.77 316.06L279.18 317.06C279.742 317.146 280.261 317.409 280.664 317.81C281.066 318.21 281.331 318.729 281.42 319.29L282.42 325.7L283.42 319.29C283.509 318.729 283.774 318.21 284.176 317.81C284.579 317.409 285.098 317.146 285.66 317.06Z" fill="#161A1D"/>
<path opacity="0.5" d="M285.66 317.06L292.07 316.06L285.66 315.06C285.098 314.974 284.579 314.711 284.176 314.31C283.774 313.909 283.509 313.391 283.42 312.83L282.42 306.42L281.42 312.83C281.331 313.391 281.066 313.909 280.664 314.31C280.261 314.711 279.742 314.974 279.18 315.06L272.77 316.06L279.18 317.06C279.742 317.146 280.261 317.409 280.664 317.81C281.066 318.21 281.331 318.729 281.42 319.29L282.42 325.7L283.42 319.29C283.509 318.729 283.774 318.21 284.176 317.81C284.579 317.409 285.098 317.146 285.66 317.06Z" fill="white"/>
<path d="M117.86 256.23L122.1 255.56L117.86 254.89C117.488 254.833 117.144 254.658 116.878 254.392C116.612 254.126 116.437 253.782 116.38 253.41L115.72 249.18L115.05 253.41C114.993 253.782 114.818 254.126 114.552 254.392C114.286 254.658 113.942 254.833 113.57 254.89L109.33 255.56L113.57 256.23C113.942 256.287 114.286 256.462 114.552 256.728C114.818 256.994 114.993 257.338 115.05 257.71L115.72 261.94L116.38 257.71C116.437 257.338 116.612 256.994 116.878 256.728C117.144 256.462 117.488 256.287 117.86 256.23Z" fill="#161A1D"/>
<path opacity="0.5" d="M117.86 256.23L122.1 255.56L117.86 254.89C117.488 254.833 117.144 254.658 116.878 254.392C116.612 254.126 116.437 253.782 116.38 253.41L115.72 249.18L115.05 253.41C114.993 253.782 114.818 254.126 114.552 254.392C114.286 254.658 113.942 254.833 113.57 254.89L109.33 255.56L113.57 256.23C113.942 256.287 114.286 256.462 114.552 256.728C114.818 256.994 114.993 257.338 115.05 257.71L115.72 261.94L116.38 257.71C116.437 257.338 116.612 256.994 116.878 256.728C117.144 256.462 117.488 256.287 117.86 256.23Z" fill="white"/>
<path d="M392.92 265.59L397.16 264.93L392.92 264.26C392.549 264.201 392.205 264.026 391.94 263.761C391.674 263.495 391.499 263.151 391.44 262.78L390.77 258.54L390.11 262.78C390.051 263.151 389.877 263.495 389.611 263.761C389.345 264.026 389.002 264.201 388.63 264.26L384.39 264.93L388.63 265.59C389.002 265.649 389.345 265.824 389.611 266.09C389.877 266.355 390.051 266.699 390.11 267.07L390.77 271.31L391.44 267.07C391.499 266.699 391.674 266.355 391.94 266.09C392.205 265.824 392.549 265.649 392.92 265.59Z" fill="#161A1D"/>
<path opacity="0.5" d="M392.92 265.59L397.16 264.93L392.92 264.26C392.549 264.201 392.205 264.026 391.94 263.761C391.674 263.495 391.499 263.151 391.44 262.78L390.77 258.54L390.11 262.78C390.051 263.151 389.877 263.495 389.611 263.761C389.345 264.026 389.002 264.201 388.63 264.26L384.39 264.93L388.63 265.59C389.002 265.649 389.345 265.824 389.611 266.09C389.877 266.355 390.051 266.699 390.11 267.07L390.77 271.31L391.44 267.07C391.499 266.699 391.674 266.355 391.94 266.09C392.205 265.824 392.549 265.649 392.92 265.59Z" fill="white"/>
<path d="M199.15 230.35L203.3 229.7L199.15 229.05C198.786 228.993 198.45 228.822 198.189 228.561C197.928 228.301 197.757 227.964 197.7 227.6L197.04 223.44L196.39 227.6C196.332 227.963 196.16 228.299 195.9 228.56C195.64 228.82 195.304 228.991 194.94 229.05L190.78 229.7L194.94 230.35C195.304 230.408 195.64 230.58 195.9 230.84C196.16 231.101 196.332 231.436 196.39 231.8L197 236L197.66 231.84C197.711 231.463 197.885 231.113 198.154 230.844C198.423 230.575 198.773 230.401 199.15 230.35Z" fill="white"/>
<path d="M336.64 271.41L340.8 270.75L336.64 270.1C336.277 270.042 335.941 269.87 335.681 269.61C335.42 269.349 335.249 269.013 335.19 268.65L334.54 264.49L333.89 268.65C333.832 269.013 333.66 269.349 333.4 269.61C333.14 269.87 332.804 270.042 332.44 270.1L328.28 270.75L332.44 271.41C332.804 271.467 333.141 271.638 333.402 271.899C333.662 272.159 333.833 272.496 333.89 272.86L334.54 277.01L335.19 272.86C335.247 272.496 335.418 272.159 335.679 271.899C335.94 271.638 336.276 271.467 336.64 271.41Z" fill="white"/>
</svg>
