<svg width="533" height="533" viewBox="0 0 533 533" fill="none" xmlns="http://www.w3.org/2000/svg">
<path d="M266.5 455.779C380.65 455.779 473.187 450.376 473.187 443.712C473.187 437.047 380.65 431.645 266.5 431.645C152.35 431.645 59.8132 437.047 59.8132 443.712C59.8132 450.376 152.35 455.779 266.5 455.779Z" fill="#F5F5F5"/>
<path d="M455.672 409.227C455.672 409.227 460.683 392.448 450.556 389.111C440.429 385.775 434.416 377.929 434.757 369.06C435.099 360.191 424.439 351.556 416.444 359.871C408.449 368.186 409.515 353.475 398.855 349.904C388.195 346.333 379.155 354.999 382.076 362.92C384.997 370.84 374.475 375.797 361.886 369.06C349.296 362.323 335.428 374.582 338.093 384.176C340.758 393.77 338.572 394.836 330.631 391.638C322.689 388.44 308.404 397.501 313.393 409.227C318.382 420.953 455.672 409.227 455.672 409.227Z" fill="#161A1D"/>
<path opacity="0.1" d="M455.672 409.227C455.672 409.227 460.683 392.448 450.556 389.111C440.429 385.775 434.416 377.929 434.757 369.06C435.099 360.191 424.439 351.556 416.444 359.871C408.449 368.186 409.515 353.475 398.855 349.904C388.195 346.333 379.155 354.999 382.076 362.92C384.997 370.84 374.475 375.797 361.886 369.06C349.296 362.323 335.428 374.582 338.093 384.176C340.758 393.77 338.572 394.836 330.631 391.638C322.689 388.44 308.404 397.501 313.393 409.227C318.382 420.953 455.672 409.227 455.672 409.227Z" fill="white"/>
<path d="M187.786 410.826C193.116 405.496 188.319 396.435 182.989 395.369C177.659 394.303 172.329 384.922 172.052 378.952C171.775 372.983 162.202 354.616 147.278 365.958C132.354 377.3 136.885 367.621 126.097 364.444C115.309 361.268 108.487 370.424 113.23 377.3C113.23 377.3 102.379 374.582 97.912 384.709C93.4455 394.836 97.912 401.125 97.912 401.125C97.912 401.125 77.5194 400.518 79.353 413.128C81.1865 425.739 187.786 410.826 187.786 410.826Z" fill="#161A1D"/>
<path opacity="0.1" d="M187.786 410.826C193.116 405.496 188.319 396.435 182.989 395.369C177.659 394.303 172.329 384.922 172.052 378.952C171.775 372.983 162.202 354.616 147.278 365.958C132.354 377.3 136.885 367.621 126.097 364.444C115.309 361.268 108.487 370.424 113.23 377.3C113.23 377.3 102.379 374.582 97.912 384.709C93.4455 394.836 97.912 401.125 97.912 401.125C97.912 401.125 77.5194 400.518 79.353 413.128C81.1865 425.739 187.786 410.826 187.786 410.826Z" fill="white"/>
<path d="M126.492 413.352C121.162 408.022 125.959 398.961 131.289 397.895C136.619 396.829 141.949 387.448 142.236 381.479C142.524 375.509 152.076 357.153 167 368.484C181.924 379.816 177.393 370.158 188.192 366.971C198.99 363.783 205.791 372.951 201.058 379.827C201.058 379.827 211.9 377.108 216.366 387.235C220.833 397.362 216.366 403.652 216.366 403.652C216.366 403.652 236.769 403.055 234.936 415.665C233.102 428.276 126.492 413.352 126.492 413.352Z" fill="#161A1D"/>
<path opacity="0.1" d="M126.492 413.352C121.162 408.022 125.959 398.961 131.289 397.895C136.619 396.829 141.949 387.448 142.236 381.479C142.524 375.509 152.076 357.153 167 368.484C181.924 379.816 177.393 370.158 188.192 366.971C198.99 363.783 205.791 372.951 201.058 379.827C201.058 379.827 211.9 377.108 216.366 387.235C220.833 397.362 216.366 403.652 216.366 403.652C216.366 403.652 236.769 403.055 234.936 415.665C233.102 428.276 126.492 413.352 126.492 413.352Z" fill="white"/>
<path d="M474.008 411.146V425.75H62.5316V411.146C62.5 410.562 62.5863 409.978 62.7854 409.429C62.9844 408.879 63.2921 408.376 63.6901 407.948C64.088 407.52 64.5682 407.177 65.1017 406.939C65.6353 406.701 66.2114 406.572 66.7956 406.562H469.701C470.289 406.567 470.87 406.691 471.408 406.926C471.947 407.162 472.432 407.504 472.834 407.933C473.237 408.361 473.548 408.867 473.75 409.419C473.952 409.971 474.039 410.559 474.008 411.146Z" fill="#263238"/>
<path d="M111.568 406.562H85.9836V425.75H111.568V406.562Z" fill="#161A1D"/>
<path d="M159.538 406.562H135.02V425.75H159.538V406.562Z" fill="#161A1D"/>
<path d="M208.574 406.562H182.99V425.75H208.574V406.562Z" fill="#161A1D"/>
<path d="M256.544 406.562H232.026V425.75H256.544V406.562Z" fill="#161A1D"/>
<path d="M304.514 406.562H279.996V425.75H304.514V406.562Z" fill="#161A1D"/>
<path d="M353.55 406.562H327.966V425.75H353.55V406.562Z" fill="#161A1D"/>
<path d="M401.52 406.562H377.002V425.75H401.52V406.562Z" fill="#161A1D"/>
<path d="M450.556 406.562H424.972V425.75H450.556V406.562Z" fill="#161A1D"/>
<g opacity="0.6">
<path d="M111.568 406.562H85.9836V425.75H111.568V406.562Z" fill="white"/>
<path d="M159.538 406.562H135.02V425.75H159.538V406.562Z" fill="white"/>
<path d="M208.574 406.562H182.99V425.75H208.574V406.562Z" fill="white"/>
<path d="M256.544 406.562H232.026V425.75H256.544V406.562Z" fill="white"/>
<path d="M304.514 406.562H279.996V425.75H304.514V406.562Z" fill="white"/>
<path d="M353.55 406.562H327.966V425.75H353.55V406.562Z" fill="white"/>
<path d="M401.52 406.562H377.002V425.75H401.52V406.562Z" fill="white"/>
<path d="M450.556 406.562H424.972V425.75H450.556V406.562Z" fill="white"/>
</g>
<path opacity="0.1" d="M474.008 411.146V425.75H62.5316V411.146C62.5 410.562 62.5863 409.978 62.7854 409.429C62.9844 408.879 63.2921 408.376 63.6901 407.948C64.088 407.52 64.5682 407.177 65.1017 406.939C65.6353 406.701 66.2114 406.572 66.7956 406.562H469.701C470.289 406.567 470.87 406.691 471.408 406.926C471.947 407.162 472.432 407.504 472.834 407.933C473.237 408.361 473.548 408.867 473.75 409.419C473.952 409.971 474.039 410.559 474.008 411.146Z" fill="white"/>
<path d="M124.594 223.86C124.594 223.86 114.894 227.378 116.589 232.292C118.284 237.206 129.871 230.565 129.871 230.565L124.594 223.86Z" fill="#9F5B53"/>
<path opacity="0.2" d="M124.594 223.86C124.594 223.86 114.894 227.378 116.589 232.292C118.284 237.206 129.871 230.565 129.871 230.565L124.594 223.86Z" fill="black"/>
<path d="M141.362 213.03C135.979 214.17 122.281 223.498 122.281 223.498L126.918 234.616L139.326 230.523L141.362 213.03Z" fill="#161A1D"/>
<path d="M162.373 428.276L155.657 432.135L147.598 417.531L154.314 413.661L162.373 428.276Z" fill="#9F5B53"/>
<path d="M154.837 431.272L162.299 426.528C162.418 426.442 162.564 426.401 162.71 426.413C162.857 426.424 162.994 426.488 163.098 426.592L167.607 431.272C167.8 431.499 167.895 431.794 167.871 432.092C167.847 432.39 167.706 432.666 167.479 432.86L167.287 432.988C164.686 434.576 163.269 435.301 160.028 437.369C158.035 438.627 149.571 443.179 146.447 443.403C143.324 443.626 142.972 440.663 144.24 440.205C150.636 437.817 153.163 434.757 153.984 432.348C154.141 431.905 154.441 431.527 154.837 431.272Z" fill="#263238"/>
<path opacity="0.2" d="M154.314 413.661L147.598 417.531L151.756 425.057L158.472 421.198L154.314 413.661Z" fill="black"/>
<path d="M135.563 256.906C135.563 256.906 113.582 329.788 114.787 351.45C116.109 375.2 148.035 425.163 148.035 425.163L160.071 417.563C160.071 417.563 137.514 368.282 136.672 350.053C137.919 323.68 165.337 259.624 165.337 259.624L135.563 256.906Z" fill="#263238"/>
<path opacity="0.2" d="M153.014 282.49C146.362 286.562 143.729 303.906 145.136 312.711C148.728 301.561 152.833 290.57 156.116 282.138C155.613 281.92 155.062 281.837 154.518 281.899C153.973 281.961 153.454 282.164 153.014 282.49Z" fill="black"/>
<path d="M146.703 426.272L160.891 417.275L158.568 413.278L143.686 422.35L146.703 426.272Z" fill="#263238"/>
<path d="M153.302 433.734C152.877 434.044 152.367 434.215 151.841 434.225C151.674 434.203 151.516 434.139 151.381 434.038C151.247 433.937 151.141 433.803 151.074 433.649C151.026 433.56 151.001 433.462 151.001 433.361C151.001 433.261 151.026 433.162 151.074 433.073C151.607 432.253 154.442 432.125 154.762 432.125C154.794 432.121 154.827 432.128 154.854 432.146C154.881 432.163 154.901 432.19 154.911 432.221C154.932 432.248 154.943 432.282 154.943 432.316C154.943 432.351 154.932 432.385 154.911 432.412C154.421 432.906 153.881 433.349 153.302 433.734ZM151.575 433.073C151.5 433.113 151.437 433.172 151.393 433.244C151.368 433.276 151.355 433.315 151.355 433.356C151.355 433.396 151.368 433.436 151.393 433.468C151.431 433.579 151.5 433.677 151.593 433.749C151.686 433.821 151.798 433.864 151.916 433.873C152.849 433.71 153.695 433.223 154.304 432.498C153.367 432.522 152.442 432.717 151.575 433.073Z" fill="#161A1D"/>
<path d="M154.858 432.455H154.773C153.888 432.54 151.777 432.007 151.511 431.229C151.473 431.099 151.48 430.96 151.53 430.835C151.581 430.709 151.671 430.604 151.788 430.536C151.893 430.446 152.015 430.379 152.147 430.339C152.279 430.298 152.418 430.286 152.555 430.302C153.621 430.398 154.869 432.092 154.911 432.199C154.931 432.225 154.942 432.257 154.942 432.29C154.942 432.322 154.931 432.354 154.911 432.38L154.858 432.455ZM152.065 430.781H152.001C151.809 430.941 151.841 431.037 151.852 431.08C152.012 431.538 153.451 432.029 154.4 432.092C154.026 431.613 153.206 430.696 152.502 430.632C152.349 430.619 152.195 430.656 152.065 430.739V430.781Z" fill="#161A1D"/>
<path d="M177.009 437.06H169.547L168.929 419.759H176.402L177.009 437.06Z" fill="#9F5B53"/>
<path d="M168.513 436.196H177.585C177.732 436.198 177.875 436.249 177.989 436.342C178.103 436.435 178.182 436.564 178.214 436.708L179.696 443.36C179.73 443.502 179.735 443.649 179.71 443.792C179.685 443.936 179.631 444.073 179.551 444.195C179.471 444.317 179.367 444.421 179.245 444.501C179.123 444.581 178.986 444.635 178.843 444.66C178.761 444.671 178.679 444.671 178.598 444.66C175.666 444.607 173.523 444.426 169.835 444.426C167.565 444.426 160.721 444.671 157.587 444.671C154.453 444.671 154.037 441.569 155.327 441.281C161.083 440.034 165.411 438.296 167.255 436.633C167.604 436.333 168.054 436.177 168.513 436.196Z" fill="#263238"/>
<path opacity="0.2" d="M176.402 419.77H168.929L169.249 428.692H176.722L176.402 419.77Z" fill="black"/>
<path d="M145.754 258.334C145.754 258.334 151.841 329.756 154.986 351.396C158.44 375.147 165.816 426.965 165.816 426.965H179.483C179.483 426.965 176.69 377.364 175.4 354.029C173.918 327.379 173.204 260.584 173.204 260.584L145.754 258.334Z" fill="#263238"/>
<path d="M164.175 427.253H180.293V422.434L163.567 422.125L164.175 427.253Z" fill="#263238"/>
<path d="M166.04 437.508C165.531 437.549 165.023 437.413 164.601 437.124C164.467 437.009 164.363 436.861 164.3 436.696C164.236 436.53 164.215 436.351 164.239 436.175C164.232 436.073 164.257 435.971 164.311 435.883C164.364 435.795 164.443 435.726 164.537 435.685C165.369 435.259 167.735 436.751 168.044 436.911C168.075 436.926 168.1 436.951 168.115 436.982C168.131 437.013 168.136 437.048 168.13 437.081C168.125 437.116 168.11 437.148 168.088 437.175C168.065 437.201 168.035 437.221 168.002 437.231C167.359 437.391 166.702 437.484 166.04 437.508ZM164.974 435.962C164.898 435.941 164.816 435.941 164.74 435.962C164.74 435.962 164.633 436.026 164.633 436.175C164.617 436.291 164.63 436.41 164.671 436.52C164.711 436.629 164.779 436.727 164.868 436.804C165.702 437.19 166.652 437.24 167.522 436.943C166.728 436.462 165.848 436.139 164.932 435.994L164.974 435.962Z" fill="#161A1D"/>
<path d="M167.948 437.241H167.863C167.095 436.826 165.603 435.184 165.731 434.395C165.758 434.263 165.83 434.143 165.935 434.058C166.04 433.972 166.171 433.926 166.307 433.926C166.44 433.909 166.575 433.919 166.704 433.958C166.832 433.997 166.951 434.062 167.053 434.15C167.916 434.854 168.119 437.007 168.119 437.103C168.12 437.136 168.112 437.169 168.098 437.199C168.083 437.229 168.061 437.254 168.034 437.273L167.948 437.241ZM166.445 434.214H166.36C166.136 434.214 166.115 434.342 166.104 434.395C166.008 434.875 166.957 436.122 167.735 436.698C167.68 435.849 167.372 435.036 166.85 434.363C166.737 434.267 166.594 434.214 166.445 434.214Z" fill="#161A1D"/>
<path d="M140.051 269.709L159.186 269.943V265.274H140.051V269.709Z" fill="black"/>
<path d="M160.636 265.274V269.954L173.715 270.114V265.274H160.636Z" fill="black"/>
<path d="M138.601 265.274H133.037L132.515 269.613L138.601 269.687V265.274Z" fill="black"/>
<path d="M151.575 264.421H144.049V269.847H151.575V264.421Z" fill="white"/>
<path d="M133.367 264.613L174.067 267.31C176.295 247.579 182.787 227.282 184.727 220.108C184.865 219.612 184.802 219.081 184.55 218.632C184.298 218.183 183.879 217.851 183.384 217.709C181.369 217.123 179.28 216.643 177.18 216.132C167.662 214.135 158.01 212.841 148.302 212.262C145.965 212.047 143.609 212.304 141.373 213.019C135.254 230.331 133.815 251.491 133.367 264.613Z" fill="#161A1D"/>
<path opacity="0.6" d="M180.922 233.593C180.538 235.064 180.122 236.61 179.717 238.209C177.175 247.77 175.287 257.493 174.067 267.31L133.367 264.613C133.667 252.339 134.976 240.11 137.28 228.05C141.352 218.711 151.564 214.661 151.564 214.661C151.564 214.661 152.694 217.07 157.758 217.773C162.821 218.477 169.579 216.899 169.579 216.899C177.457 223.125 179.472 234.563 179.472 234.563L180.922 233.593Z" fill="white"/>
<path opacity="0.2" d="M183.096 225.832C182.126 229.222 180.964 233.443 179.717 238.208C175.261 231.94 179.237 222.837 179.237 222.837C180.781 223.45 182.119 224.489 183.096 225.832Z" fill="black"/>
<path d="M169.857 214.884C166.36 218.082 157.8 216.878 157.8 216.878C157.8 216.878 152.47 215.417 153.536 213.744C156.734 213.232 158.216 211.761 158.866 209.874C159.207 208.709 159.316 207.489 159.186 206.282C159.186 205.983 159.133 205.685 159.09 205.397C159.047 205.109 158.983 204.651 158.919 204.278L169.505 196.432C169.121 197.86 168.716 199.63 168.439 201.517C167.693 205.962 167.458 211.111 169.249 214.01C169.421 214.321 169.625 214.614 169.857 214.884Z" fill="#9F5B53"/>
<path opacity="0.2" d="M168.087 210.674C164.228 210.247 161.35 207.753 158.93 204.278L167.874 205.024C167.79 206.91 167.861 208.8 168.087 210.674Z" fill="black"/>
<path d="M116.524 230.427C115.64 235.895 118.902 237.494 131.779 252.685C131.779 252.685 130.958 255.158 131.353 255.755C131.747 256.352 139.241 263.931 139.241 263.931L145.637 255.574C145.637 255.574 140.947 249.828 139.443 248.783C138.815 248.346 135.84 248.464 135.84 248.464C135.84 248.464 124.957 229.99 122.793 228.284C120.629 226.579 117.111 226.802 116.524 230.427Z" fill="#9F5B53"/>
<path d="M189.748 239.157C189.748 239.157 196.688 248.442 203.137 246.875C209.586 245.308 216.227 239.413 216.227 239.413C216.227 239.413 219.255 241.31 220.673 241.278C222.09 241.246 229.563 239.967 229.563 239.967L226.067 232.004C226.067 232.004 219.575 232.431 217.858 232.388C216.142 232.345 214.042 235.053 214.042 235.053C214.042 235.053 203.777 237.654 202.316 237.59C200.856 237.526 195.803 231.919 195.803 231.919L189.748 239.157Z" fill="#9F5B53"/>
<path d="M183.352 217.698C189.311 220.502 201.176 234.509 201.176 234.509L192.328 244.711L179.482 234.52C179.482 234.52 178.214 226.397 179.237 222.794C179.899 220.627 181.373 218.801 183.352 217.698Z" fill="#161A1D"/>
<path opacity="0.2" d="M146.703 426.272L160.891 417.275L158.568 413.278L143.686 422.35L146.703 426.272Z" fill="black"/>
<path opacity="0.2" d="M164.175 427.253H180.293V422.434L163.567 422.125L164.175 427.253Z" fill="black"/>
<path d="M150.605 191.656C150.528 191.973 150.547 192.306 150.659 192.613C150.771 192.919 150.972 193.186 151.235 193.378C151.499 193.571 151.813 193.681 152.139 193.695C152.465 193.709 152.788 193.627 153.067 193.457C153.346 193.288 153.569 193.04 153.707 192.745C153.846 192.449 153.893 192.119 153.844 191.796C153.795 191.474 153.651 191.173 153.432 190.932C153.212 190.69 152.925 190.52 152.609 190.441C152.397 190.389 152.178 190.378 151.962 190.411C151.747 190.444 151.54 190.519 151.354 190.632C151.168 190.745 151.005 190.893 150.877 191.069C150.748 191.245 150.656 191.445 150.605 191.656Z" fill="#263238"/>
<path d="M176.039 180.154C176.039 180.154 178.64 190.132 173.662 194.598C168.684 199.065 166.712 180.154 166.712 180.154H176.039Z" fill="#263238"/>
<path d="M175.56 200.323C175.453 200.686 175.325 201.042 175.176 201.389C174.137 203.775 172.232 205.68 169.846 206.719C167.692 207.685 165.254 207.81 163.013 207.071C161.413 206.525 159.994 205.552 158.909 204.256C155.444 200.291 155.817 195.974 155.86 188.65C155.841 186.937 156.261 185.247 157.08 183.742C157.9 182.237 159.091 180.967 160.54 180.053C161.99 179.139 163.649 178.612 165.36 178.521C167.071 178.431 168.777 178.78 170.315 179.536C177.265 182.915 177.564 193.852 175.56 200.323Z" fill="#9F5B53"/>
<path d="M166.808 191.422C166.722 192.008 167.042 192.488 167.447 192.541C167.852 192.594 168.172 192.104 168.215 191.475C168.257 190.846 167.97 190.409 167.586 190.356C167.202 190.302 166.85 190.814 166.808 191.422Z" fill="#263238"/>
<path d="M173.534 191.88C173.46 192.466 173.79 192.946 174.174 192.999C174.558 193.053 174.909 192.562 174.952 191.933C174.995 191.304 174.707 190.867 174.312 190.814C173.918 190.761 173.577 191.294 173.534 191.88Z" fill="#263238"/>
<path d="M171.381 192.008C171.966 193.894 172.813 195.688 173.897 197.338C173.467 197.602 172.986 197.769 172.485 197.83C171.985 197.891 171.477 197.843 170.997 197.69L171.381 192.008Z" fill="#892B29"/>
<path d="M176.22 189.14C176.166 189.175 176.103 189.193 176.039 189.193C175.975 189.193 175.912 189.175 175.858 189.14C175.508 188.873 175.099 188.691 174.666 188.612C174.232 188.532 173.786 188.556 173.364 188.682C173.277 188.713 173.182 188.71 173.098 188.672C173.015 188.634 172.949 188.565 172.916 188.48C172.899 188.437 172.891 188.391 172.892 188.345C172.893 188.3 172.903 188.254 172.922 188.213C172.941 188.171 172.968 188.133 173.002 188.102C173.035 188.071 173.075 188.047 173.118 188.032C173.647 187.862 174.208 187.822 174.756 187.915C175.303 188.008 175.82 188.231 176.263 188.565C176.301 188.59 176.334 188.622 176.36 188.659C176.386 188.697 176.403 188.74 176.412 188.784C176.421 188.829 176.421 188.875 176.412 188.92C176.403 188.965 176.385 189.007 176.359 189.045C176.323 189.089 176.275 189.122 176.22 189.14Z" fill="#263238"/>
<path d="M165.646 188.682C165.575 188.678 165.508 188.652 165.454 188.607C165.398 188.534 165.373 188.441 165.385 188.349C165.397 188.257 165.445 188.174 165.518 188.117C165.956 187.774 166.471 187.541 167.018 187.439C167.566 187.337 168.13 187.368 168.663 187.531C168.706 187.546 168.745 187.57 168.779 187.601C168.813 187.632 168.84 187.67 168.859 187.711C168.878 187.753 168.888 187.798 168.889 187.844C168.89 187.89 168.882 187.936 168.865 187.978C168.832 188.064 168.766 188.133 168.682 188.171C168.599 188.209 168.504 188.212 168.417 188.181C167.992 188.067 167.546 188.053 167.115 188.142C166.684 188.231 166.279 188.42 165.934 188.693C165.887 188.711 165.838 188.719 165.789 188.717C165.739 188.715 165.69 188.703 165.646 188.682Z" fill="#263238"/>
<path d="M161.798 179.877L162.139 183.075C161.587 183.323 161.15 183.771 160.914 184.329C160.679 184.886 160.663 185.512 160.87 186.081C161.872 188.82 160.252 193.01 158.141 194.609C158.141 194.609 158.141 193.436 157.075 193.692C156.009 193.948 156.244 200.088 158.141 203.052C158.141 203.052 155.263 200.355 153.717 193.895C152.289 187.914 152.182 182.947 153.44 180.666L161.798 179.877Z" fill="#263238"/>
<path d="M152.246 194.449C152.952 196.155 154.305 197.512 156.009 198.223C158.28 199.15 159.687 197.157 159.303 194.908C158.941 192.882 157.342 189.887 154.954 189.951C154.432 189.967 153.922 190.114 153.471 190.378C153.021 190.642 152.643 191.014 152.374 191.462C152.104 191.909 151.952 192.417 151.929 192.939C151.907 193.461 152.016 193.98 152.246 194.449Z" fill="#9F5B53"/>
<path d="M170.954 199.619C170.394 200.517 169.899 201.454 169.473 202.423L168.929 202.274C166.488 201.613 165.571 200.493 165.305 199.459C165.182 198.951 165.182 198.421 165.305 197.914C165.371 197.628 165.475 197.352 165.614 197.093C166.942 198.158 168.483 198.925 170.134 199.342C170.635 199.545 170.954 199.619 170.954 199.619Z" fill="#263238"/>
<path d="M170.134 199.342L169.665 200.152C167.373 199.523 165.838 198.767 165.305 197.871C165.371 197.585 165.475 197.309 165.614 197.05C166.938 198.13 168.48 198.912 170.134 199.342Z" fill="white"/>
<path d="M168.929 202.274C166.488 201.613 165.571 200.493 165.305 199.459C166.226 199.733 167.091 200.166 167.863 200.739C168.37 201.126 168.743 201.663 168.929 202.274Z" fill="#DE5753"/>
<path d="M150.914 182.638C150.802 183.095 150.829 183.574 150.991 184.016C151.152 184.458 151.441 184.842 151.821 185.119C152.2 185.397 152.654 185.556 153.124 185.575C153.594 185.595 154.059 185.475 154.461 185.23C154.862 184.985 155.182 184.627 155.38 184.2C155.578 183.773 155.645 183.297 155.572 182.832C155.499 182.368 155.29 181.935 154.971 181.589C154.653 181.243 154.238 181 153.781 180.889C153.169 180.742 152.524 180.843 151.986 181.17C151.448 181.498 151.063 182.026 150.914 182.638Z" fill="#263238"/>
<path d="M151.18 186.252C151.103 186.569 151.122 186.902 151.235 187.208C151.347 187.515 151.547 187.781 151.811 187.974C152.074 188.166 152.389 188.277 152.715 188.291C153.041 188.305 153.364 188.222 153.643 188.053C153.922 187.884 154.145 187.636 154.283 187.34C154.421 187.044 154.469 186.714 154.42 186.392C154.371 186.069 154.227 185.768 154.007 185.527C153.787 185.286 153.501 185.115 153.184 185.036C152.757 184.933 152.307 185.003 151.932 185.231C151.556 185.459 151.286 185.826 151.18 186.252Z" fill="#263238"/>
<path d="M150.956 188.511C150.88 188.829 150.899 189.162 151.011 189.468C151.123 189.774 151.323 190.041 151.587 190.233C151.85 190.426 152.165 190.537 152.491 190.551C152.817 190.565 153.14 190.482 153.419 190.313C153.698 190.143 153.921 189.895 154.059 189.6C154.197 189.304 154.245 188.974 154.196 188.651C154.147 188.329 154.003 188.028 153.783 187.787C153.564 187.546 153.277 187.375 152.96 187.296C152.534 187.193 152.083 187.263 151.708 187.491C151.332 187.718 151.062 188.085 150.956 188.511Z" fill="#263238"/>
<path d="M152.171 182.052C152.171 182.052 151.489 177.788 158.248 174.664C165.006 171.541 172.212 175.517 176.743 172.788C181.273 170.059 181.124 181.775 171.562 182.841C165.092 183.418 158.574 183.153 152.171 182.052Z" fill="#263238"/>
<path d="M165.582 172.959C165.412 173.644 165.45 174.365 165.691 175.029C165.932 175.693 166.365 176.27 166.935 176.687C167.504 177.105 168.186 177.343 168.891 177.372C169.597 177.401 170.295 177.22 170.898 176.851C171.5 176.482 171.979 175.942 172.274 175.3C172.568 174.658 172.666 173.943 172.553 173.246C172.44 172.549 172.122 171.901 171.64 171.385C171.158 170.868 170.534 170.507 169.846 170.347C168.934 170.132 167.975 170.285 167.176 170.775C166.377 171.264 165.804 172.049 165.582 172.959Z" fill="#263238"/>
<path d="M155.636 174.184C155.469 174.867 155.509 175.585 155.75 176.245C155.991 176.906 156.423 177.48 156.992 177.895C157.56 178.309 158.238 178.546 158.941 178.574C159.643 178.603 160.339 178.422 160.938 178.054C161.538 177.687 162.015 177.15 162.309 176.511C162.603 175.872 162.701 175.16 162.589 174.466C162.478 173.771 162.163 173.126 161.684 172.611C161.206 172.095 160.585 171.734 159.9 171.573C158.989 171.357 158.029 171.511 157.23 172C156.432 172.489 155.859 173.274 155.636 174.184Z" fill="#263238"/>
<path d="M175.613 177.031C175.502 177.487 175.529 177.966 175.691 178.408C175.852 178.849 176.141 179.232 176.52 179.51C176.899 179.787 177.352 179.946 177.821 179.966C178.291 179.986 178.756 179.866 179.157 179.623C179.559 179.379 179.879 179.021 180.078 178.595C180.276 178.17 180.344 177.695 180.273 177.23C180.201 176.766 179.994 176.333 179.677 175.986C179.36 175.64 178.947 175.395 178.491 175.282C178.187 175.208 177.872 175.194 177.562 175.241C177.253 175.289 176.956 175.397 176.689 175.559C176.422 175.721 176.189 175.935 176.004 176.188C175.82 176.44 175.687 176.727 175.613 177.031Z" fill="#263238"/>
<path d="M162.032 172.116C161.921 172.573 161.948 173.052 162.11 173.493C162.271 173.935 162.56 174.318 162.939 174.595C163.318 174.873 163.771 175.031 164.241 175.051C164.71 175.072 165.175 174.952 165.576 174.708C165.978 174.464 166.298 174.107 166.497 173.681C166.695 173.255 166.763 172.78 166.692 172.316C166.621 171.851 166.413 171.419 166.096 171.072C165.779 170.725 165.366 170.48 164.91 170.368C164.606 170.293 164.291 170.279 163.982 170.327C163.672 170.374 163.376 170.482 163.108 170.645C162.841 170.807 162.608 171.021 162.423 171.273C162.239 171.526 162.106 171.812 162.032 172.116Z" fill="#263238"/>
<path d="M152.438 176.956C152.327 177.413 152.354 177.892 152.516 178.333C152.677 178.774 152.966 179.158 153.345 179.435C153.724 179.712 154.177 179.871 154.647 179.891C155.116 179.911 155.581 179.792 155.982 179.548C156.384 179.304 156.704 178.947 156.903 178.521C157.101 178.095 157.169 177.62 157.098 177.155C157.027 176.691 156.819 176.258 156.502 175.912C156.185 175.565 155.772 175.32 155.316 175.208C155.012 175.133 154.697 175.119 154.388 175.166C154.078 175.214 153.782 175.322 153.514 175.484C153.247 175.647 153.014 175.86 152.829 176.113C152.645 176.365 152.512 176.652 152.438 176.956Z" fill="#263238"/>
<path d="M172.308 173.385C172.139 174.075 172.179 174.8 172.421 175.467C172.664 176.135 173.099 176.715 173.671 177.136C174.244 177.556 174.928 177.797 175.638 177.829C176.347 177.861 177.05 177.681 177.658 177.313C178.266 176.945 178.751 176.406 179.051 175.762C179.352 175.119 179.456 174.401 179.349 173.699C179.242 172.996 178.929 172.342 178.45 171.817C177.971 171.293 177.347 170.922 176.658 170.752C175.732 170.527 174.754 170.677 173.939 171.171C173.124 171.664 172.538 172.46 172.308 173.385Z" fill="#263238"/>
<path d="M223.86 236.769L238.422 251.192C240.554 251.107 241.385 246.161 241.726 242.174L239.658 238.208L241.726 234.189H248.058L249.508 238.603L248.719 242.174L245.585 243.688C245.585 243.688 243.389 261.66 240.618 261.66C237.846 261.66 219.841 245.947 219.841 245.947L223.86 236.769Z" fill="#EEC1BB"/>
<path d="M219.927 247.291L227.922 253.825L234.381 243.624L223.817 236.769L219.927 247.291Z" fill="#263238"/>
<path opacity="0.2" d="M224.393 250.947L225.63 244.711L227.921 253.825L224.393 250.947Z" fill="black"/>
<path d="M225.299 267.694V277.853L197.69 279.772L196.474 269.059L225.299 267.694Z" fill="#EEC1BB"/>
<path d="M253.09 437.209L246.992 438.286L244.487 429.971L242.206 422.339L249.242 419.887L251.278 429.055L253.09 437.209Z" fill="#EEC1BB"/>
<path opacity="0.2" d="M251.31 429.247L244.519 430.142L242.217 422.424L249.241 419.93L251.31 429.247Z" fill="black"/>
<path d="M255.403 437.273C255.372 437.258 255.347 437.233 255.332 437.202C255.317 437.171 255.312 437.137 255.318 437.103C255.318 437.007 255.499 434.853 256.384 434.15C256.487 434.062 256.608 433.996 256.738 433.958C256.869 433.919 257.006 433.908 257.14 433.926C257.275 433.926 257.404 433.973 257.507 434.059C257.611 434.144 257.681 434.263 257.705 434.395C257.865 435.184 256.373 436.826 255.573 437.241H255.488L255.403 437.273ZM256.597 434.363C256.076 435.036 255.767 435.849 255.712 436.698C256.48 436.122 257.428 434.875 257.332 434.395C257.332 434.342 257.332 434.214 257.077 434.214H256.991C256.846 434.215 256.706 434.268 256.597 434.363Z" fill="#263238"/>
<path d="M212.369 440.024H206.175L205.162 431.304L204.246 423.341L211.59 422.115L212.006 431.591L212.369 440.024Z" fill="#EEC1BB"/>
<path opacity="0.2" d="M212.006 431.666L205.162 431.368L204.246 423.373L211.59 422.136L212.006 431.666Z" fill="black"/>
<path d="M251.885 424.407L241.865 426.176C231.748 400.965 224.542 379.933 219.479 362.472C216.739 353.049 214.458 344.67 212.816 337.24L213.125 364.679V426.507H203.244C178.48 308.554 196.027 281.68 196.027 281.68L225.662 276.744C226.824 282.228 227.647 287.778 228.124 293.363L229.467 303.192L241.044 363.016L251.885 424.407Z" fill="#161A1D"/>
<g opacity="0.3">
<path d="M251.885 424.407L241.865 426.176C231.748 400.965 224.542 379.933 219.479 362.472C216.739 353.049 214.458 344.67 212.816 337.24L213.125 364.679V426.507H203.244C178.48 308.554 196.027 281.68 196.027 281.68L225.662 276.744C226.824 282.228 227.647 287.778 228.124 293.363L229.467 303.192L241.044 363.016L251.885 424.407Z" fill="white"/>
</g>
<path opacity="0.2" d="M219.468 362.44C216.728 353.017 214.596 344.638 212.955 337.208C213.097 328.409 213.738 319.626 214.874 310.899C214.874 310.899 219.212 344.862 219.468 362.44Z" fill="black"/>
<path d="M227.793 281.786L193.618 284.622C194.684 277.917 195.174 266.553 192.999 258.857C192.669 257.706 192.306 256.49 191.933 255.19C191.464 253.697 190.931 252.095 190.334 250.382C189.876 249.06 189.375 247.653 188.821 246.118C188.671 245.681 188.501 245.233 188.33 244.786C187.776 243.283 187.179 241.684 186.518 239.999C190.484 238.876 194.518 238.007 198.596 237.398C202.926 236.717 207.294 236.308 211.676 236.172C217.336 236.172 223.849 236.695 223.849 236.695C223.849 236.695 224.766 236.897 225.352 242.249C225.853 247.312 228.955 263.494 227.793 281.786Z" fill="#263238"/>
<path d="M211.313 237.942C211.027 237.797 210.732 237.673 210.428 237.569C209.746 237.036 208.936 235.757 208.979 232.655C209.001 231.437 209.111 230.222 209.309 229.02L200.675 227.41C200.675 227.41 203.617 233.22 201.165 237.537C200.323 237.91 199.811 238.443 199.907 239.147C200.557 244.135 210.066 245.116 210.066 245.116C210.066 245.116 216.515 240.81 211.313 237.942Z" fill="#EEC1BB"/>
<path opacity="0.2" d="M209.309 229.02C208.296 231.759 206.047 233.657 202.103 234.414C202.234 231.995 201.742 229.584 200.675 227.41L209.309 229.02Z" fill="black"/>
<path d="M213.712 200.11C213.712 200.11 212.646 190.921 221.099 193.937C229.552 196.954 228.454 212.315 232.516 217.389C236.577 222.464 239.616 221.909 239.616 221.909C239.616 221.909 234.541 226.109 229.68 223.785C224.819 221.462 213.712 200.11 213.712 200.11Z" fill="#263238"/>
<path d="M213.594 201.527L215.598 200.163C216.342 200.339 217.039 200.673 217.642 201.142C218.246 201.611 218.741 202.204 219.095 202.881C219.856 204.248 220.308 205.766 220.417 207.326L217.709 208.488L213.594 201.527Z" fill="#161A1D"/>
<path d="M203.478 201.325C203.478 201.325 193.298 200.611 191.891 208.861C191.479 211.205 191.742 213.617 192.65 215.816C193.558 218.015 195.073 219.91 197.018 221.28L203.478 201.325Z" fill="#263238"/>
<path d="M204.672 205.61C197.157 205.61 194.737 209.65 194.193 217.4C193.522 227.079 195.675 233.966 205.077 231.887C217.805 229.062 217.123 205.599 204.672 205.61Z" fill="#EEC1BB"/>
<path d="M199.022 216.974C198.439 218.096 197.724 219.145 196.89 220.097C197.111 220.407 197.413 220.65 197.763 220.798C198.113 220.947 198.497 220.996 198.873 220.939L199.022 216.974Z" fill="#D4827D"/>
<path d="M203.606 216.398C203.606 217.016 203.915 217.528 204.32 217.528C204.725 217.528 205.077 217.048 205.098 216.462C205.12 215.876 204.789 215.332 204.373 215.332C203.958 215.332 203.606 215.737 203.606 216.398Z" fill="#263238"/>
<path d="M204.565 215.332L203.233 214.767C203.233 214.767 203.883 215.876 204.565 215.332Z" fill="#263238"/>
<path d="M195.952 216.057C195.952 216.675 196.261 217.123 196.666 217.187C197.071 217.251 197.423 216.707 197.445 216.121C197.466 215.535 197.135 214.991 196.72 214.991C196.304 214.991 195.963 215.439 195.952 216.057Z" fill="#263238"/>
<path d="M196.89 214.991L195.558 214.426C195.558 214.426 196.208 215.577 196.89 214.991Z" fill="#263238"/>
<path d="M206.953 212.656C206.9 212.658 206.848 212.647 206.8 212.625C206.751 212.603 206.709 212.57 206.676 212.528C206.295 212.151 205.833 211.865 205.325 211.692C204.817 211.518 204.277 211.462 203.745 211.526C203.648 211.536 203.551 211.508 203.474 211.449C203.396 211.389 203.345 211.303 203.329 211.207C203.323 211.159 203.326 211.111 203.339 211.064C203.352 211.018 203.374 210.975 203.404 210.937C203.434 210.9 203.471 210.868 203.513 210.845C203.555 210.822 203.601 210.807 203.649 210.802C204.304 210.719 204.97 210.789 205.593 211.007C206.216 211.226 206.781 211.586 207.241 212.059C207.309 212.129 207.348 212.223 207.348 212.321C207.348 212.418 207.309 212.512 207.241 212.582C207.201 212.614 207.155 212.637 207.105 212.65C207.056 212.663 207.004 212.665 206.953 212.656Z" fill="#263238"/>
<path d="M195.238 211.836C195.177 211.836 195.117 211.822 195.064 211.794C195.01 211.766 194.963 211.725 194.929 211.676C194.901 211.635 194.882 211.59 194.873 211.542C194.863 211.494 194.863 211.445 194.873 211.397C194.883 211.349 194.903 211.304 194.93 211.264C194.958 211.224 194.994 211.19 195.035 211.164C195.502 210.81 196.043 210.567 196.617 210.452C197.191 210.338 197.784 210.355 198.351 210.503C198.442 210.537 198.516 210.605 198.558 210.692C198.599 210.78 198.605 210.88 198.574 210.972C198.541 211.063 198.473 211.137 198.385 211.179C198.298 211.221 198.197 211.227 198.105 211.196C197.645 211.091 197.168 211.089 196.707 211.191C196.247 211.292 195.814 211.494 195.44 211.782C195.378 211.815 195.309 211.833 195.238 211.836Z" fill="#263238"/>
<path d="M212.87 218.274C212.87 218.274 209.352 212.102 209.874 207.337C209.874 207.337 194.95 201.261 194.257 216.387C194.257 216.387 192.775 202.966 205.706 202.647C218.637 202.327 218.594 221.238 211.931 226.887C211.931 226.887 215.055 222.133 212.87 218.274Z" fill="#263238"/>
<path d="M202.167 200.813C202.167 200.813 195.92 199.651 194.268 201.378C192.616 203.105 205.695 213.914 212.273 214.714C212.273 214.714 214.884 221.792 213.339 225.267C213.339 225.267 220.524 222.293 220.246 211.121C219.969 199.95 207.987 196.411 202.167 200.813Z" fill="#263238"/>
<path d="M211.644 219.862C211.717 218.993 212.132 218.187 212.797 217.622C213.462 217.057 214.323 216.778 215.193 216.846C217.528 217.102 218.637 221.877 212.848 223.039C212.017 223.199 211.548 222.389 211.644 219.862Z" fill="#EEC1BB"/>
<path d="M198.095 223.615C198.61 224.538 199.059 225.496 199.438 226.482L199.982 226.365C202.455 225.822 203.425 224.756 203.745 223.732C203.894 223.234 203.92 222.707 203.819 222.197C203.774 221.906 203.688 221.622 203.563 221.355C202.183 222.365 200.602 223.067 198.926 223.412C198.415 223.551 198.095 223.615 198.095 223.615Z" fill="#263238"/>
<path d="M198.926 223.412L199.353 224.244C201.677 223.732 203.244 223.061 203.819 222.197C203.774 221.906 203.688 221.622 203.563 221.355C202.183 222.365 200.602 223.067 198.926 223.412Z" fill="white"/>
<path d="M199.982 226.365C202.455 225.822 203.425 224.756 203.745 223.732C202.811 223.962 201.923 224.351 201.122 224.883C200.598 225.248 200.2 225.765 199.982 226.365Z" fill="#DE5753"/>
<path d="M255.446 437.231C255.411 437.224 255.379 437.205 255.356 437.178C255.333 437.151 255.319 437.117 255.318 437.082C255.31 437.048 255.314 437.012 255.329 436.981C255.345 436.95 255.371 436.925 255.403 436.911C255.669 436.74 258.079 435.259 258.899 435.685C258.993 435.728 259.072 435.798 259.126 435.885C259.181 435.972 259.21 436.073 259.209 436.176C259.231 436.352 259.208 436.532 259.143 436.697C259.078 436.863 258.972 437.01 258.835 437.124C258.418 437.413 257.913 437.549 257.407 437.508C256.745 437.485 256.088 437.392 255.446 437.231ZM255.957 436.986C256.831 437.282 257.784 437.233 258.622 436.847C258.708 436.768 258.775 436.67 258.815 436.561C258.856 436.452 258.87 436.334 258.857 436.218C258.857 436.069 258.793 436.005 258.739 436.005C258.666 435.984 258.589 435.984 258.516 436.005C257.608 436.165 256.739 436.498 255.957 436.986Z" fill="#263238"/>
<path d="M213.872 437.231C213.837 437.224 213.805 437.205 213.782 437.178C213.759 437.151 213.745 437.117 213.744 437.082C213.736 437.048 213.74 437.012 213.756 436.981C213.771 436.95 213.797 436.925 213.829 436.911C214.095 436.74 216.505 435.259 217.325 435.685C217.419 435.728 217.498 435.798 217.552 435.885C217.607 435.972 217.636 436.073 217.635 436.176C217.657 436.352 217.634 436.532 217.569 436.697C217.504 436.863 217.398 437.01 217.261 437.124C216.844 437.413 216.339 437.549 215.833 437.508C215.171 437.485 214.514 437.392 213.872 437.231ZM214.383 436.986C215.257 437.282 216.21 437.233 217.048 436.847C217.134 436.768 217.201 436.67 217.241 436.561C217.282 436.452 217.296 436.334 217.283 436.218C217.283 436.069 217.219 436.005 217.166 436.005C217.092 435.984 217.015 435.984 216.942 436.005C216.034 436.165 215.165 436.498 214.383 436.986Z" fill="#263238"/>
<path d="M213.829 437.273C213.798 437.258 213.773 437.233 213.758 437.202C213.743 437.171 213.738 437.137 213.744 437.103C213.744 437.007 213.925 434.853 214.81 434.15C214.913 434.062 215.034 433.996 215.164 433.958C215.295 433.919 215.432 433.908 215.567 433.926C215.701 433.926 215.83 433.973 215.934 434.059C216.037 434.144 216.107 434.263 216.132 434.395C216.291 435.184 214.799 436.826 214 437.241H213.914L213.829 437.273ZM215.023 434.363C214.502 435.036 214.193 435.849 214.138 436.698C214.906 436.122 215.854 434.875 215.758 434.395C215.758 434.342 215.758 434.214 215.503 434.214H215.417C215.272 434.215 215.132 434.268 215.023 434.363Z" fill="#263238"/>
<path d="M254.934 436.196H245.862C245.713 436.196 245.568 436.246 245.452 436.339C245.335 436.432 245.254 436.562 245.223 436.708L243.752 443.36C243.717 443.502 243.713 443.649 243.737 443.792C243.762 443.936 243.816 444.073 243.896 444.195C243.976 444.317 244.08 444.421 244.202 444.501C244.324 444.581 244.461 444.635 244.604 444.661C244.682 444.671 244.761 444.671 244.839 444.661C247.781 444.607 249.913 444.426 253.601 444.426C255.872 444.426 262.726 444.671 265.86 444.671C268.995 444.671 269.4 441.569 268.12 441.281C262.364 440.034 258.025 438.297 256.192 436.634C255.843 436.334 255.393 436.178 254.934 436.196Z" fill="#161A1D"/>
<path d="M213.36 436.196H204.288C204.139 436.196 203.994 436.246 203.878 436.339C203.761 436.432 203.681 436.562 203.649 436.708L202.178 443.36C202.143 443.502 202.139 443.649 202.163 443.792C202.188 443.936 202.242 444.073 202.322 444.195C202.402 444.317 202.506 444.421 202.628 444.501C202.75 444.581 202.887 444.635 203.03 444.661C203.108 444.671 203.187 444.671 203.265 444.661C206.207 444.607 208.339 444.426 212.027 444.426C214.298 444.426 221.152 444.671 224.286 444.671C227.421 444.671 227.826 441.569 226.546 441.281C220.79 440.034 216.451 438.297 214.618 436.634C214.269 436.334 213.819 436.178 213.36 436.196Z" fill="#161A1D"/>
<path opacity="0.2" d="M191.88 255.211C191.411 253.719 190.878 252.116 190.281 250.404C189.823 249.082 189.322 247.675 188.767 246.14C189.039 245.474 189.45 244.875 189.972 244.381C189.972 244.381 192.211 250.51 191.88 255.211Z" fill="black"/>
<path d="M186.486 240.074C182.616 241.982 171.061 260.328 174.355 266.5C177.649 272.672 192.477 278.098 192.477 278.098C192.477 278.098 186.294 281.499 186.507 282.362C186.721 283.225 191.837 286.626 192.477 286.626C194.256 285.268 195.924 283.771 197.466 282.149C198.201 281.317 197.562 277.821 197.562 277.821C193.383 274.42 181.902 266.233 181.199 264.4C180.495 262.566 190.174 249.934 190.174 249.934C190.174 249.934 190.452 244.69 189.29 242.344C188.128 239.999 186.486 240.074 186.486 240.074Z" fill="#EEC1BB"/>
<path d="M185.783 257.663L177.18 251.203C180.527 246.566 183.171 239.925 186.486 240.074C189.801 240.223 190.356 244.839 190.302 250.404L185.783 257.663Z" fill="#263238"/>
<path d="M387.011 195.387C387.011 195.387 379.155 191.027 372.748 194.321C369.795 195.813 368.761 199.651 368.132 202.614C367.269 206.772 367.13 211.047 366.533 215.247C366.324 217.025 365.816 218.755 365.03 220.363C363.964 222.495 361.715 224.627 362.163 227.239C362.546 229.542 364.902 230.927 366.96 231.556C372.407 233.23 378.579 232.303 384.208 232.622C388.738 232.91 393.119 234.445 397.661 234.552C398.953 234.664 400.251 234.405 401.402 233.806C405.783 231.194 403.875 224.478 402.468 220.747C401.264 217.549 402.148 214.351 401.765 211.015C401.486 208.09 400.797 205.219 399.718 202.487C397.437 197.103 392.874 194.246 387.011 195.387Z" fill="#263238"/>
<path d="M349.286 251.789C350.746 251.661 365.18 242.291 365.18 242.291L365.691 238.379L366.235 234.115C364.103 234.04 351.151 244.38 349.296 245.287C345.533 247.141 345.96 252.066 349.286 251.789Z" fill="#EBB376"/>
<path opacity="0.2" d="M361.289 244.775L365.179 242.281L365.723 238.091L361.289 244.775Z" fill="black"/>
<path d="M403.428 235.746C403.428 235.746 396.968 242.313 396.168 270.231L367.248 267.897C367.248 267.897 362.643 247.973 366.182 233.891C378.549 231.288 391.38 231.927 403.428 235.746Z" fill="#161A1D"/>
<path opacity="0.4" d="M403.428 235.746C403.428 235.746 396.968 242.313 396.168 270.231L367.248 267.897C367.248 267.897 362.643 247.973 366.182 233.891C378.549 231.288 391.38 231.927 403.428 235.746Z" fill="white"/>
<path d="M341.898 428.756L347.676 429.779L350.053 421.891L352.217 414.653L345.544 412.318L343.604 421.017L341.898 428.756Z" fill="#EBB376"/>
<path opacity="0.2" d="M343.572 421.198L350.021 422.051L352.196 414.727L345.533 412.361L343.572 421.198Z" fill="black"/>
<path d="M380.509 431.421H386.393L387.352 423.149L388.226 415.591L381.255 414.439L380.86 423.426L380.509 431.421Z" fill="#EBB376"/>
<path opacity="0.2" d="M380.86 423.501L387.352 423.213L388.226 415.633L381.255 414.45L380.86 423.501Z" fill="black"/>
<path d="M343.028 416.603L352.537 418.288C362.131 394.377 368.964 374.422 373.782 357.856C376.383 348.923 378.547 340.971 380.104 333.914L379.816 359.945V418.576H389.186C412.638 306.646 395.806 273.909 395.806 273.909L367.237 272.096C366.171 276.286 366.043 287.553 365.574 292.286L364.305 301.678L353.315 358.421L343.028 416.603Z" fill="#263238"/>
<path opacity="0.2" d="M373.782 357.856C376.383 348.923 378.409 340.971 379.965 333.914C379.831 325.568 379.222 317.236 378.142 308.959C378.142 308.959 374.027 341.12 373.782 357.856Z" fill="black"/>
<path d="M396.168 270.231L367.248 267.896V272.811L396.595 275.401L396.168 270.231Z" fill="black"/>
<path d="M375.232 270.071V272.342C375.23 272.787 375.396 273.218 375.696 273.547C375.996 273.877 376.408 274.082 376.852 274.122L380.434 274.431H380.562C381.008 274.429 381.437 274.262 381.767 273.962C381.949 273.796 382.095 273.594 382.194 273.368C382.293 273.142 382.344 272.898 382.342 272.651V270.37C382.347 269.923 382.182 269.492 381.881 269.162C381.581 268.831 381.167 268.627 380.722 268.589L377.14 268.28C376.894 268.261 376.648 268.293 376.415 268.374C376.182 268.455 375.968 268.582 375.787 268.75C375.606 268.917 375.461 269.119 375.362 269.345C375.263 269.57 375.211 269.814 375.211 270.06L375.232 270.071ZM376.149 272.342V271.596L377.151 271.67C377.235 271.686 377.321 271.684 377.404 271.664C377.487 271.644 377.564 271.607 377.632 271.556C377.7 271.504 377.756 271.438 377.797 271.364C377.837 271.289 377.862 271.206 377.869 271.121C377.875 271.036 377.864 270.951 377.836 270.87C377.807 270.79 377.762 270.717 377.704 270.655C377.645 270.593 377.574 270.544 377.495 270.512C377.417 270.479 377.332 270.463 377.247 270.466L376.245 270.38H376.106V270.039C376.104 269.919 376.128 269.8 376.175 269.689C376.223 269.579 376.294 269.48 376.383 269.4C376.539 269.254 376.745 269.174 376.959 269.176H377.044L380.615 269.485C380.832 269.501 381.034 269.6 381.181 269.76C381.328 269.921 381.407 270.131 381.404 270.348V272.63C381.405 272.75 381.381 272.868 381.333 272.979C381.285 273.089 381.215 273.188 381.127 273.269C381.039 273.35 380.934 273.411 380.82 273.448C380.706 273.485 380.585 273.497 380.466 273.482L376.895 273.173C376.694 273.143 376.51 273.043 376.376 272.891C376.241 272.739 376.165 272.545 376.159 272.342H376.149Z" fill="white"/>
<path d="M388.482 232.847C389.012 233.029 389.448 233.411 389.698 233.913C386.887 235.975 383.472 237.048 379.986 236.961C379.006 236.961 376.97 234.19 378.494 233.337C378.776 233.188 379.068 233.06 379.368 232.953C380.018 232.431 380.818 231.162 380.765 228.114C380.734 226.913 380.616 225.716 380.413 224.532L388.941 222.89C388.941 222.89 386.041 228.615 388.482 232.847Z" fill="#EBB376"/>
<path opacity="0.2" d="M380.413 224.51C380.616 225.694 380.734 226.891 380.765 228.092C386.51 228.092 388.909 222.869 388.909 222.869L380.413 224.51Z" fill="black"/>
<path d="M350.831 425.59L339.692 423.458V431.378C339.692 431.378 333.999 440.834 331.537 441.473C330.862 441.652 330.282 442.085 329.919 442.68C329.555 443.276 329.436 443.989 329.586 444.671H341.888L344.872 441.1L345.523 444.671H347.889C347.889 444.671 350.384 437.476 347.889 432.423L350.831 425.59Z" fill="#263238"/>
<path d="M390.156 424.599L379.016 425.462L379.997 431.421C379.997 431.421 374.294 440.876 371.831 441.516C371.156 441.692 370.575 442.125 370.213 442.722C369.851 443.319 369.736 444.033 369.891 444.714H382.193L385.178 441.143L385.817 444.714H388.184C388.184 444.714 390.678 437.519 388.184 432.466L390.156 424.599Z" fill="#263238"/>
<path d="M383.334 200.483C375.872 200.483 373.537 204.448 372.993 212.07C372.311 221.611 374.422 228.38 383.653 226.354C396.253 223.594 395.624 200.493 383.334 200.483Z" fill="#EBB376"/>
<path d="M377.78 211.665C377.194 212.77 376.478 213.8 375.648 214.735C375.864 215.04 376.161 215.28 376.506 215.427C376.85 215.573 377.228 215.622 377.598 215.567L377.78 211.665Z" fill="#D58745"/>
<path d="M382.31 211.068C382.31 211.676 382.619 212.134 383.025 212.134C383.43 212.134 383.771 211.665 383.781 211.068C383.792 210.471 383.483 210.002 383.078 209.949C382.673 209.896 382.332 210.45 382.31 211.068Z" fill="#263238"/>
<path d="M383.238 210.002L381.926 209.448C381.926 209.448 382.566 210.588 383.238 210.002Z" fill="#263238"/>
<path d="M374.752 210.748C374.752 211.356 375.061 211.814 375.466 211.868C375.872 211.921 376.213 211.399 376.223 210.802C376.234 210.205 375.925 209.736 375.52 209.682C375.115 209.629 374.774 210.141 374.752 210.748Z" fill="#263238"/>
<path d="M375.68 209.703L374.379 209.149C374.379 209.149 375.008 210.279 375.68 209.703Z" fill="#263238"/>
<path d="M385.604 207.433C385.549 207.433 385.494 207.421 385.444 207.397C385.394 207.373 385.351 207.338 385.316 207.294C384.94 206.926 384.487 206.647 383.989 206.477C383.491 206.307 382.961 206.251 382.438 206.314C382.391 206.32 382.342 206.316 382.296 206.303C382.25 206.29 382.206 206.268 382.169 206.239C382.131 206.209 382.1 206.172 382.076 206.13C382.053 206.088 382.038 206.042 382.033 205.994C382.026 205.947 382.028 205.899 382.039 205.853C382.051 205.806 382.072 205.763 382.101 205.725C382.13 205.687 382.166 205.656 382.208 205.632C382.249 205.609 382.295 205.594 382.342 205.589C382.988 205.502 383.645 205.566 384.261 205.777C384.877 205.988 385.435 206.34 385.892 206.804C385.922 206.841 385.945 206.884 385.959 206.93C385.972 206.975 385.977 207.023 385.972 207.071C385.967 207.119 385.953 207.165 385.93 207.207C385.907 207.249 385.876 207.286 385.839 207.316C385.811 207.351 385.775 207.38 385.734 207.4C385.694 207.421 385.649 207.432 385.604 207.433Z" fill="#263238"/>
<path d="M374.059 206.602C373.979 206.605 373.9 206.581 373.835 206.534C373.77 206.488 373.722 206.421 373.699 206.344C373.675 206.267 373.678 206.185 373.707 206.11C373.736 206.035 373.788 205.972 373.857 205.93C374.32 205.582 374.856 205.344 375.425 205.234C375.994 205.123 376.58 205.142 377.14 205.29C377.229 205.326 377.301 205.395 377.341 205.482C377.38 205.57 377.385 205.669 377.353 205.759C377.337 205.804 377.311 205.846 377.279 205.881C377.246 205.916 377.207 205.944 377.163 205.964C377.12 205.984 377.072 205.995 377.025 205.996C376.977 205.998 376.929 205.99 376.884 205.973C376.432 205.868 375.962 205.865 375.508 205.964C375.054 206.064 374.629 206.263 374.262 206.548C374.199 206.581 374.13 206.599 374.059 206.602Z" fill="#263238"/>
<path d="M391.414 212.966C391.414 212.966 387.96 206.889 388.482 202.188C388.482 202.188 373.814 196.187 373.079 211.079C373.079 211.079 371.661 197.85 384.389 197.562C397.117 197.274 397.042 215.897 390.465 221.44C390.465 221.44 393.556 216.771 391.414 212.966Z" fill="#263238"/>
<path d="M390.209 214.533C390.239 214.106 390.353 213.69 390.546 213.309C390.739 212.928 391.006 212.589 391.332 212.313C391.658 212.037 392.036 211.828 392.444 211.701C392.851 211.573 393.28 211.528 393.706 211.569C395.998 211.814 397.085 216.526 391.382 217.656C390.561 217.816 390.156 217.016 390.209 214.533Z" fill="#EBB376"/>
<path d="M377.364 217.464C377.727 218.368 378.023 219.298 378.249 220.246H378.76C381.084 220.044 382.097 219.18 382.523 218.295C382.814 217.595 382.851 216.815 382.63 216.089C381.251 216.851 379.724 217.306 378.153 217.421C377.652 217.464 377.364 217.464 377.364 217.464Z" fill="#263238"/>
<path d="M378.131 217.4L378.419 218.21C380.605 218.018 382.118 217.592 382.747 216.867C382.737 216.595 382.69 216.326 382.609 216.067C381.23 216.83 379.703 217.284 378.131 217.4Z" fill="white"/>
<path d="M378.739 220.225C381.063 220.022 382.076 219.159 382.502 218.274C381.62 218.361 380.76 218.606 379.965 218.999C379.44 219.272 379.012 219.7 378.739 220.225Z" fill="#DE5753"/>
<path opacity="0.2" d="M390.071 257.46C391.744 258.771 394.9 257.577 397.213 256.106C398.279 250.137 398.695 245.628 399.707 242.515C398.044 244.114 387.011 255.051 390.071 257.46Z" fill="black"/>
<path d="M377.94 252.216C377.891 252.208 377.845 252.187 377.807 252.155C377.77 252.123 377.742 252.081 377.726 252.034C377.577 251.48 374.187 238.358 376.927 232.345C376.94 232.315 376.958 232.287 376.982 232.264C377.006 232.241 377.034 232.223 377.065 232.211C377.096 232.199 377.129 232.193 377.162 232.194C377.195 232.196 377.227 232.203 377.257 232.218C377.315 232.247 377.36 232.298 377.381 232.359C377.403 232.421 377.401 232.488 377.375 232.548C375.04 237.654 377.375 248.474 378.046 251.256C382.459 242.366 391.83 233.06 391.904 232.964C391.926 232.94 391.953 232.922 391.982 232.909C392.011 232.897 392.043 232.89 392.075 232.89C392.107 232.89 392.138 232.897 392.168 232.909C392.197 232.922 392.223 232.94 392.245 232.964C392.29 233.011 392.315 233.074 392.315 233.14C392.315 233.205 392.29 233.268 392.245 233.315C392.149 233.411 382.406 243.091 378.163 252.077C378.143 252.119 378.111 252.154 378.072 252.179C378.032 252.204 377.986 252.216 377.94 252.216Z" fill="white"/>
<path d="M377.812 256.565C377.32 256.567 376.838 256.423 376.428 256.151C376.018 255.879 375.698 255.491 375.508 255.037C375.319 254.582 375.269 254.082 375.364 253.599C375.46 253.116 375.697 252.673 376.045 252.325C376.393 251.977 376.836 251.74 377.319 251.645C377.802 251.549 378.302 251.599 378.756 251.789C379.211 251.978 379.599 252.298 379.871 252.708C380.143 253.118 380.287 253.6 380.285 254.092C380.285 254.748 380.024 255.377 379.56 255.841C379.097 256.304 378.468 256.565 377.812 256.565ZM377.812 252.599C377.517 252.599 377.228 252.687 376.983 252.851C376.737 253.015 376.546 253.248 376.433 253.521C376.32 253.793 376.29 254.093 376.348 254.383C376.406 254.672 376.548 254.938 376.756 255.147C376.965 255.356 377.231 255.498 377.521 255.556C377.81 255.613 378.11 255.584 378.383 255.471C378.655 255.358 378.889 255.166 379.053 254.921C379.217 254.676 379.304 254.387 379.304 254.092C379.293 253.703 379.131 253.335 378.852 253.064C378.573 252.793 378.2 252.642 377.812 252.642V252.599Z" fill="#263238"/>
<path d="M378.494 244.86L375.765 239.53C375.765 239.53 376.159 234.68 375.765 234.296C375.371 233.912 369.945 231.588 367.994 231.588C366.043 231.588 365.862 238.72 366.64 239.53C367.418 240.34 372.354 241.982 372.354 241.982L377.3 245.681L378.494 244.86Z" fill="#EBB376"/>
<path d="M403.428 235.746C408.225 240.511 393.834 259.358 388.909 259.358C383.984 259.358 372.354 241.982 372.354 241.982L375.765 239.552C375.765 239.552 387.374 251.704 388.376 251.747C389.378 251.789 397.096 240.021 398.503 238.603C399.931 237.323 401.608 236.351 403.428 235.746Z" fill="#EBB376"/>
<path d="M283.407 236.727L277.821 233.529C277.125 232.374 276.271 231.323 275.284 230.405C274.132 229.542 269.399 228.273 269.399 228.273C267.651 227.89 266.724 228.433 266.201 229.457L263.547 235.49C263.11 236.556 263.142 237.046 263.547 237.121C263.547 237.121 272.757 239.402 275.039 237.409L280.71 240.703L283.407 236.727Z" fill="#EEC1BB"/>
<path d="M315.44 218.445C315.588 219.278 315.421 220.137 314.971 220.854C313.564 223.476 307.839 234.627 305.078 238.198C300.601 243.997 296.977 247.099 294.195 247.291C289.589 247.621 275.987 241.588 275.987 241.588L281.371 233.529C281.371 233.529 289.43 237.238 292.851 236.46C296.273 235.682 302.819 217.795 305.153 213.307C305.153 213.307 314.47 214.266 315.44 218.445Z" fill="#161A1D"/>
<path opacity="0.2" d="M300.772 243.197C299.961 244.274 298.928 245.164 297.744 245.809C299.706 241.545 302.68 225.15 302.68 225.15L300.772 243.197Z" fill="black"/>
<path d="M337.922 436.591H347.154C347.304 436.593 347.449 436.645 347.565 436.74C347.681 436.835 347.762 436.967 347.793 437.113L349.296 443.872C349.356 444.163 349.3 444.466 349.138 444.715C348.976 444.965 348.723 445.141 348.433 445.204C348.348 445.22 348.261 445.22 348.177 445.204C345.192 445.204 343.017 444.981 339.276 444.981C336.963 444.981 330.002 445.215 326.814 445.215C323.627 445.215 323.211 442.07 324.512 441.783C330.364 440.503 334.767 438.734 336.643 437.05C336.997 436.743 337.453 436.58 337.922 436.591Z" fill="#161A1D"/>
<path opacity="0.6" d="M337.922 436.591H347.154C347.304 436.593 347.449 436.645 347.565 436.74C347.681 436.835 347.762 436.967 347.793 437.113L349.296 443.872C349.356 444.163 349.3 444.466 349.138 444.715C348.976 444.965 348.723 445.141 348.433 445.204C348.348 445.22 348.261 445.22 348.177 445.204C345.192 445.204 343.017 444.981 339.276 444.981C336.963 444.981 330.002 445.215 326.814 445.215C323.627 445.215 323.211 442.07 324.512 441.783C330.364 440.503 334.767 438.734 336.643 437.05C336.997 436.743 337.453 436.58 337.922 436.591Z" fill="white"/>
<path d="M298.757 436.346H307.989C308.138 436.349 308.282 436.402 308.398 436.497C308.514 436.592 308.595 436.722 308.628 436.868L310.131 443.637C310.169 443.781 310.176 443.931 310.152 444.078C310.128 444.225 310.074 444.365 309.992 444.489C309.911 444.614 309.804 444.72 309.68 444.801C309.555 444.882 309.415 444.936 309.268 444.959H309.023C306.038 444.906 303.863 444.725 300.111 444.725C297.798 444.725 290.837 444.97 287.649 444.97C284.462 444.97 284.046 441.772 285.347 441.527C291.199 440.247 295.612 438.478 297.489 436.804C297.839 436.498 298.292 436.334 298.757 436.346Z" fill="#161A1D"/>
<path opacity="0.6" d="M298.757 436.346H307.989C308.138 436.349 308.282 436.402 308.398 436.497C308.514 436.592 308.595 436.722 308.628 436.868L310.131 443.637C310.169 443.781 310.176 443.931 310.152 444.078C310.128 444.225 310.074 444.365 309.992 444.489C309.911 444.614 309.804 444.72 309.68 444.801C309.555 444.882 309.415 444.936 309.268 444.959H309.023C306.038 444.906 303.863 444.725 300.111 444.725C297.798 444.725 290.837 444.97 287.649 444.97C284.462 444.97 284.046 441.772 285.347 441.527C291.199 440.247 295.612 438.478 297.489 436.804C297.839 436.498 298.292 436.334 298.757 436.346Z" fill="white"/>
<path d="M342.783 265.551H302.467C298.64 286.477 286.637 371.469 295.25 437.465H308.895C308.895 437.465 307.626 337.261 319.683 304.855C321.069 322.188 335.15 437.401 335.15 437.401H349.008C349.008 437.401 346.93 394.058 344.851 353.123C343.583 327.337 342.836 270.839 342.783 265.551Z" fill="#263238"/>
<path opacity="0.2" d="M342.783 265.551H302.467C298.64 286.477 286.637 371.469 295.25 437.465H308.895C308.895 437.465 307.626 337.261 319.683 304.855C321.069 322.188 335.15 437.401 335.15 437.401H349.008C349.008 437.401 346.93 394.058 344.851 353.123C343.583 327.337 342.836 270.839 342.783 265.551Z" fill="white"/>
<path opacity="0.2" d="M319.672 304.876C317.694 310.555 316.19 316.388 315.174 322.316C314.044 306.891 318.553 290.528 318.553 290.528L319.672 304.876Z" fill="black"/>
<path d="M307.69 270.434L301.614 270.37L302.136 266.031H307.69V270.434Z" fill="black"/>
<path d="M329.671 266.031H342.708V270.86L329.671 270.711V266.031Z" fill="black"/>
<path d="M328.221 270.689L309.14 270.455V266.031H328.221V270.689Z" fill="black"/>
<path d="M319.128 270.977H314.619C314.466 270.977 314.314 270.947 314.172 270.888C314.03 270.829 313.902 270.742 313.794 270.633C313.686 270.524 313.6 270.395 313.543 270.253C313.485 270.11 313.456 269.958 313.457 269.805V266.916C313.457 266.608 313.58 266.312 313.798 266.094C314.016 265.876 314.311 265.754 314.619 265.754H319.128C319.437 265.754 319.732 265.876 319.95 266.094C320.168 266.312 320.29 266.608 320.29 266.916V269.805C320.292 269.958 320.263 270.11 320.205 270.253C320.147 270.395 320.062 270.524 319.954 270.633C319.846 270.742 319.717 270.829 319.576 270.888C319.434 270.947 319.282 270.977 319.128 270.977ZM314.619 266.82C314.594 266.82 314.569 266.83 314.551 266.848C314.533 266.866 314.523 266.89 314.523 266.916V269.805C314.523 269.831 314.533 269.857 314.551 269.877C314.568 269.896 314.593 269.909 314.619 269.911H319.128C319.155 269.909 319.179 269.896 319.197 269.877C319.215 269.857 319.225 269.831 319.224 269.805V266.916C319.224 266.89 319.214 266.866 319.196 266.848C319.178 266.83 319.154 266.82 319.128 266.82H314.619Z" fill="white"/>
<path d="M319.672 268.771H317.337C317.196 268.771 317.061 268.714 316.961 268.614C316.861 268.515 316.804 268.379 316.804 268.238C316.804 268.096 316.861 267.961 316.961 267.861C317.061 267.761 317.196 267.705 317.337 267.705H319.672C319.813 267.705 319.949 267.761 320.049 267.861C320.149 267.961 320.205 268.096 320.205 268.238C320.205 268.379 320.149 268.515 320.049 268.614C319.949 268.714 319.813 268.771 319.672 268.771Z" fill="white"/>
<path d="M349.072 216.526C348.603 218.2 348.081 220.385 347.569 223.039C346.972 226.056 346.375 229.68 345.864 233.774C344.649 244.481 344.169 255.258 344.425 266.031L300.846 265.658C300.846 265.658 299.045 237.388 305.11 213.307L346.151 212.795C346.613 212.779 347.072 212.872 347.491 213.068C347.909 213.263 348.276 213.554 348.561 213.918C348.846 214.281 349.04 214.707 349.129 215.16C349.218 215.614 349.199 216.082 349.072 216.526Z" fill="#161A1D"/>
<path opacity="0.2" d="M347.569 223.039C346.972 226.056 345.906 234.009 345.384 238.102C341.365 236.151 341.067 225.598 341.067 225.598C342.836 225.342 346.716 222.251 347.569 223.039Z" fill="black"/>
<path d="M321.666 217.102C321.666 217.102 330.289 217.176 333.392 213.594C331.441 211.942 330.599 208.659 330.343 205.141C330.181 202.654 330.227 200.158 330.481 197.679C330.545 196.869 330.641 196.123 330.737 195.44L321.25 204.523C321.25 204.683 321.346 204.843 321.399 205.013C321.538 205.493 321.666 205.994 321.761 206.474C322.039 207.654 322.086 208.878 321.9 210.077C321.86 210.894 321.691 211.7 321.399 212.464C321.09 212.965 320.461 213.371 319.064 213.786C318.116 215.535 321.666 217.102 321.666 217.102Z" fill="#EEC1BB"/>
<path opacity="0.2" d="M321.356 212.422C324.277 211.356 327.88 206.889 330.098 202.913C330 201.147 330.115 199.375 330.439 197.636L321.356 204.971C321.495 205.45 321.623 205.951 321.719 206.431C321.997 207.612 322.044 208.835 321.857 210.034C321.817 210.851 321.648 211.657 321.356 212.422Z" fill="black"/>
<path d="M311.858 180.069C311.858 180.069 309.119 190.153 314.108 194.716C319.096 199.278 321.292 180.154 321.292 180.154L311.858 180.069Z" fill="#263238"/>
<path d="M328.978 204.672C327.646 206.231 325.838 207.309 323.833 207.74C321.828 208.172 319.737 207.932 317.881 207.06C315.47 205.97 313.565 204.003 312.551 201.559C312.4 201.213 312.272 200.856 312.167 200.493C310.206 193.916 310.611 182.851 317.711 179.504C318.912 178.928 320.216 178.594 321.547 178.522C322.877 178.449 324.209 178.64 325.467 179.082C326.724 179.525 327.881 180.21 328.874 181.1C329.866 181.99 330.673 183.067 331.249 184.269C331.947 185.701 332.291 187.281 332.251 188.874C332.198 196.336 332.528 200.696 328.978 204.672Z" fill="#EEC1BB"/>
<path d="M321.09 191.603C321.164 192.2 320.834 192.669 320.429 192.733C320.024 192.797 319.693 192.275 319.661 191.667C319.629 191.059 319.917 190.601 320.312 190.537C320.706 190.473 321.047 190.995 321.09 191.603Z" fill="#263238"/>
<path d="M314.267 191.976C314.342 192.573 314.001 193.042 313.617 193.106C313.233 193.17 312.871 192.648 312.839 192.04C312.807 191.432 313.106 190.974 313.489 190.91C313.873 190.846 314.235 191.4 314.267 191.976Z" fill="#263238"/>
<path d="M316.453 192.157C315.833 194.044 314.958 195.837 313.852 197.487C314.283 197.761 314.769 197.937 315.275 198.003C315.781 198.069 316.296 198.024 316.783 197.871L316.453 192.157Z" fill="#D4827D"/>
<path d="M311.624 189.311C311.683 189.338 311.748 189.347 311.813 189.337C311.877 189.328 311.937 189.3 311.986 189.258C312.329 188.979 312.731 188.782 313.161 188.682C313.592 188.582 314.039 188.582 314.47 188.682C314.513 188.699 314.559 188.706 314.606 188.703C314.652 188.701 314.697 188.689 314.738 188.667C314.779 188.646 314.816 188.617 314.845 188.581C314.874 188.545 314.895 188.503 314.907 188.458C314.922 188.415 314.928 188.369 314.925 188.323C314.921 188.278 314.909 188.233 314.888 188.192C314.867 188.151 314.838 188.115 314.803 188.086C314.768 188.056 314.727 188.034 314.683 188.021C314.138 187.885 313.569 187.88 313.022 188.008C312.475 188.136 311.966 188.393 311.538 188.757C311.501 188.785 311.469 188.82 311.445 188.861C311.422 188.902 311.406 188.947 311.4 188.994C311.394 189.04 311.398 189.088 311.411 189.133C311.423 189.179 311.445 189.221 311.474 189.258L311.624 189.311Z" fill="#263238"/>
<path d="M322.284 188.81C322.354 188.808 322.422 188.781 322.476 188.735C322.505 188.7 322.528 188.659 322.541 188.615C322.554 188.571 322.559 188.525 322.554 188.479C322.549 188.433 322.535 188.389 322.512 188.348C322.489 188.308 322.459 188.273 322.422 188.245C321.983 187.883 321.462 187.633 320.905 187.518C320.348 187.403 319.771 187.426 319.224 187.584C319.137 187.616 319.064 187.68 319.023 187.763C318.981 187.846 318.973 187.943 319 188.032C319.036 188.119 319.103 188.19 319.187 188.231C319.272 188.272 319.368 188.281 319.459 188.256C319.89 188.146 320.34 188.14 320.774 188.238C321.207 188.337 321.612 188.536 321.953 188.821C322.006 188.843 322.063 188.853 322.12 188.852C322.177 188.85 322.233 188.835 322.284 188.81Z" fill="#263238"/>
<path d="M326.281 179.962L325.642 181.38C328.093 182.158 327.635 185.004 327.145 186.305C326.079 189.066 327.71 193.319 329.831 195.003C329.831 195.003 329.831 193.809 330.897 194.087C331.963 194.364 331.664 200.568 329.724 203.542C329.724 203.542 332.677 200.845 334.308 194.321C335.811 188.277 335.971 183.256 334.713 180.932L326.281 179.962Z" fill="#263238"/>
<path d="M335.79 194.812C335.061 196.531 333.681 197.891 331.952 198.596C329.65 199.513 328.232 197.53 328.648 195.206C329.032 193.149 330.684 190.143 333.104 190.239C333.626 190.271 334.133 190.431 334.58 190.705C335.026 190.98 335.398 191.359 335.663 191.811C335.928 192.262 336.079 192.772 336.101 193.295C336.123 193.819 336.016 194.339 335.79 194.812Z" fill="#EEC1BB"/>
<path d="M316.986 199.929C317.522 200.859 317.988 201.829 318.382 202.828L318.937 202.711C321.442 202.146 322.412 201.048 322.731 200.014C322.873 199.503 322.895 198.967 322.795 198.447C322.743 198.151 322.649 197.864 322.518 197.594C321.128 198.63 319.533 199.357 317.839 199.726C317.327 199.865 316.986 199.929 316.986 199.929Z" fill="#263238"/>
<path d="M317.839 199.726L318.276 200.568C320.631 200.024 322.22 199.331 322.795 198.436C322.743 198.14 322.649 197.853 322.518 197.583C321.129 198.623 319.534 199.354 317.839 199.726Z" fill="white"/>
<path d="M318.937 202.711C321.442 202.146 322.412 201.048 322.731 200.014C321.784 200.248 320.885 200.648 320.077 201.197C319.545 201.566 319.145 202.097 318.937 202.711Z" fill="#DE5753"/>
<path d="M311.858 180.069C312.445 176.7 313.99 173.907 315.771 170.624L316.293 174.451C317.137 173.007 318.3 171.774 319.693 170.848L320.376 174.963C321.175 173.193 322.966 172.17 325.301 171.562L324.959 175.112C325.999 173.537 327.581 172.399 329.405 171.914L329.223 175.282C329.486 174.85 329.851 174.489 330.286 174.231C330.721 173.972 331.213 173.825 331.718 173.801L334.713 180.89L327.433 183.235L313.276 183.715L311.858 180.069Z" fill="#263238"/>
<path d="M353.731 265.434L353.358 271.99C353.954 273.221 354.371 274.531 354.594 275.881C354.68 277.341 351.546 286.989 351.546 286.989L343.785 283.002C343.785 283.002 345.533 272.949 348.507 272.129L348.881 265.477L353.731 265.434Z" fill="#EEC1BB"/>
<path d="M349.051 214.842C354.701 226.749 360.937 238.23 359.423 245.511L355.34 270.977L347.484 270.658L350.128 247.312C352.579 243.048 345.586 233.657 341.067 225.619L349.051 214.842Z" fill="#161A1D"/>
<path d="M349.509 245.297L366.363 254.849L363.133 257.802L348.124 251.544L349.509 245.297Z" fill="#EBB376"/>
<path d="M359.295 253.218L363.133 257.801C363.133 257.801 363.836 262.609 364.295 262.897C364.753 263.185 370.584 264.24 372.471 263.803C374.358 263.366 372.972 256.341 372.034 255.765C371.096 255.19 365.926 254.699 365.926 254.699L360.276 252.194L359.295 253.218Z" fill="#EBB376"/>
<path opacity="0.2" d="M266.937 331.697C262.78 322.263 258.857 314.118 258.857 314.118C258.734 312.44 258.896 310.753 259.336 309.129C259.932 308.747 260.588 308.47 261.277 308.309C261.277 308.309 266.329 316.25 266.937 331.697Z" fill="black"/>
<path d="M298.629 437.604L303.48 436.282C301.699 411.828 296.902 382.332 292.82 360.212C292.169 356.737 291.562 353.465 290.965 350.405C290.677 348.955 290.41 347.559 290.144 346.216C288.854 339.596 287.756 334.351 287.084 331.11L286.306 327.454L268.877 332.507L270.338 336.856L275.124 351.364L275.668 353.017L278.866 362.611L284.249 378.921C284.974 403.876 298.629 437.604 298.629 437.604Z" fill="#EBB376"/>
<path d="M256.352 436.42L261.362 435.941C263.973 409.419 264.08 376.415 263.718 353.475C263.718 349.915 263.59 346.599 263.526 343.593C263.526 343.433 263.526 343.295 263.526 343.145C263.377 337.176 263.227 332.421 263.11 329.415L262.961 325.78L244.924 327.795L246.043 335.257L247.685 346.279L248.015 348.411L249.081 355.873L252.098 376.032C248.634 400.816 256.352 436.42 256.352 436.42Z" fill="#EBB376"/>
<path opacity="0.2" d="M247.674 346.322L263.526 343.593C263.526 343.433 263.526 343.295 263.526 343.145C263.377 337.176 263.227 332.421 263.11 329.415L246.054 335.3L247.674 346.322Z" fill="black"/>
<path opacity="0.2" d="M288.886 339.596L272.203 342.421L270.338 336.856L287.095 331.078C287.521 333.178 288.129 336.057 288.886 339.596Z" fill="black"/>
<path d="M245.542 285.336C245.542 285.336 234.808 305.441 244.913 342.09L264.624 339.841V320.941L268.888 339.148L288.641 335.183C282.565 305.441 274.783 292.116 274.783 292.116L273.781 283.183L245.542 285.336Z" fill="#161A1D"/>
<path opacity="0.7" d="M245.542 285.336C245.542 285.336 234.808 305.441 244.913 342.09L264.624 339.841V320.941L268.888 339.148L288.641 335.183C282.565 305.441 274.783 292.116 274.783 292.116L273.781 283.183L245.542 285.336Z" fill="white"/>
<path d="M253.974 435.397C253.974 434.768 261.724 435.259 261.724 435.259C261.724 435.259 266.479 440.098 271.094 441.186C275.71 442.273 273.13 445.045 267.971 445.045H255.179C251.576 445.045 253.825 441.921 253.974 435.397Z" fill="#263238"/>
<path d="M265.786 437.241C264.671 437.102 263.589 436.77 262.588 436.261C262.559 436.249 262.533 436.231 262.513 436.207C262.502 436.182 262.497 436.155 262.497 436.127C262.497 436.1 262.502 436.073 262.513 436.047C262.513 435.973 263.185 434.171 264.24 433.734C264.395 433.66 264.564 433.622 264.736 433.622C264.907 433.622 265.077 433.66 265.231 433.734C265.583 433.894 265.754 434.118 265.743 434.374C265.732 434.63 265.167 435.195 264.539 435.525C265.124 435.426 265.726 435.493 266.276 435.717C266.478 435.829 266.628 436.017 266.692 436.239C266.748 436.379 266.76 436.533 266.725 436.68C266.691 436.827 266.612 436.959 266.5 437.06C266.291 437.204 266.038 437.268 265.786 437.241ZM263.291 436.175C264.432 436.655 265.85 437.081 266.212 436.783C266.212 436.783 266.34 436.676 266.265 436.378C266.23 436.26 266.15 436.16 266.042 436.101C265.143 435.86 264.195 435.871 263.302 436.133L263.291 436.175ZM264.677 434.043C264.567 434.044 264.459 434.066 264.357 434.107C263.753 434.509 263.29 435.091 263.035 435.77C264.176 435.333 265.285 434.704 265.306 434.384C265.306 434.278 265.136 434.182 265.029 434.129C264.923 434.06 264.802 434.017 264.677 434.001V434.043Z" fill="#161A1D"/>
<path d="M297.254 435.397C297.254 434.768 304.993 435.259 304.993 435.259C304.993 435.259 309.748 440.098 314.363 441.186C318.979 442.273 316.41 445.045 311.24 445.045H298.48C294.802 445.045 297.094 441.921 297.254 435.397Z" fill="#263238"/>
<path d="M309.065 437.241C307.951 437.102 306.868 436.77 305.867 436.261C305.854 436.256 305.841 436.25 305.83 436.24C305.819 436.231 305.81 436.22 305.803 436.207C305.792 436.182 305.787 436.155 305.787 436.127C305.787 436.1 305.792 436.073 305.803 436.047C305.803 435.973 306.486 434.171 307.53 433.734C307.687 433.661 307.858 433.623 308.031 433.623C308.204 433.623 308.375 433.661 308.532 433.734C308.884 433.894 309.055 434.118 309.044 434.374C309.033 434.63 308.468 435.195 307.839 435.525C308.422 435.428 309.019 435.495 309.566 435.717C309.669 435.769 309.76 435.842 309.831 435.933C309.903 436.023 309.954 436.127 309.982 436.239C310.039 436.378 310.053 436.531 310.02 436.678C309.988 436.825 309.911 436.958 309.801 437.06C309.586 437.208 309.324 437.273 309.065 437.241ZM306.56 436.175C307.701 436.655 309.119 437.081 309.481 436.783C309.481 436.783 309.609 436.676 309.534 436.378C309.519 436.318 309.49 436.263 309.452 436.215C309.413 436.168 309.365 436.129 309.31 436.101C308.408 435.858 307.456 435.869 306.56 436.133V436.175ZM307.946 434.043C307.84 434.044 307.735 434.066 307.637 434.107C307.026 434.505 306.56 435.088 306.304 435.77C307.456 435.333 308.554 434.704 308.575 434.384C308.575 434.278 308.404 434.182 308.298 434.129C308.191 434.06 308.071 434.017 307.946 434.001V434.043Z" fill="#161A1D"/>
<path opacity="0.2" d="M264.624 320.941C267.992 313.99 270.338 308.255 270.338 308.255C270.338 308.255 271.073 325.876 268.888 339.169L264.624 320.941Z" fill="black"/>
<path d="M257.812 199.118C257.812 199.118 249.71 195.057 243.4 198.596C240.49 200.237 239.615 204.128 239.136 207.124C238.432 211.388 238.475 215.652 238.07 219.916C237.937 221.714 237.501 223.476 236.78 225.129C235.714 227.324 234.179 232.175 234.179 232.175L239.05 233.155L240.671 231.023L241.012 233.561L254.689 236.322L255.648 234.19L256.607 236.759L260.434 236.151L261.788 233.102L262.47 235.831L268.046 234.946L269.112 231.62L270.412 234.563L274.527 233.902L274.431 224.02C274.431 224.02 273.834 217.571 273.312 214.255C272.908 211.312 272.089 208.441 270.881 205.727C268.376 200.408 263.664 197.722 257.812 199.118Z" fill="#263238"/>
<path d="M271.926 236.886C276.19 237.729 292.031 252.439 290.464 259.272C288.897 266.106 275.955 275.135 275.955 275.135C275.955 275.135 282.799 276.84 282.82 277.714C282.842 278.588 278.748 283.247 278.151 283.407C276.088 282.545 274.093 281.53 272.182 280.369C271.265 279.75 270.977 276.201 270.977 276.201C274.175 271.841 283.119 260.978 283.321 259.027C283.524 257.077 270.934 247.355 270.934 247.355C270.934 247.355 269.314 242.355 269.868 239.797C270.423 237.238 271.926 236.886 271.926 236.886Z" fill="#EBB376"/>
<path d="M270.903 247.845C269.41 242.515 268.547 237.452 271.564 236.439C274.58 235.426 290.901 251.278 290.57 258.58C290.325 264.016 278.013 274.314 278.013 274.314L274.548 270.764C274.548 270.764 282.618 259.87 282.82 258.601C283.023 257.332 270.903 247.845 270.903 247.845Z" fill="#161A1D"/>
<path opacity="0.3" d="M270.903 247.845C269.41 242.515 268.547 237.452 271.564 236.439C274.58 235.426 290.901 251.278 290.57 258.58C290.325 264.016 278.013 274.314 278.013 274.314L274.548 270.764C274.548 270.764 282.543 259.912 282.82 258.601C283.098 257.29 270.903 247.845 270.903 247.845Z" fill="black"/>
<path opacity="0.2" d="M277.267 252.941L273.258 249.7L274.005 244.786L277.267 252.941Z" fill="black"/>
<path d="M245.542 281.211V285.347L273.749 283.183V278.301L245.542 281.211Z" fill="#263238"/>
<path d="M267.08 279.289L260.911 279.842L261.33 284.513L267.499 283.961L267.08 279.289Z" fill="white"/>
<path d="M254.834 279.486L253.439 279.557L253.803 286.68L255.197 286.609L254.834 279.486Z" fill="#161A1D"/>
<path opacity="0.6" d="M254.834 279.486L253.439 279.557L253.803 286.68L255.197 286.609L254.834 279.486Z" fill="white"/>
<path d="M272.059 277.599L270.665 277.67L271.028 284.792L272.422 284.721L272.059 277.599Z" fill="#161A1D"/>
<path opacity="0.6" d="M272.059 277.599L270.665 277.67L271.028 284.792L272.422 284.721L272.059 277.599Z" fill="white"/>
<path d="M273.706 278.791L245.5 281.232C244.828 270.743 246.566 264.23 240.319 245.543C239.786 243.912 239.392 240.586 238.752 238.752C242.568 237.878 243.933 237.931 247.898 237.27C252.083 236.525 256.315 236.076 260.562 235.927C266.052 235.927 272.352 236.514 272.352 236.514C272.352 236.514 273.258 236.727 273.813 242.536C274.335 248.005 274.836 258.921 273.706 278.791Z" fill="#161A1D"/>
<path opacity="0.3" d="M273.706 278.791L245.51 281.232C245.127 275.316 245.766 270.871 244.743 264.006C244.022 258.575 242.802 253.222 241.097 248.016C240.852 247.216 240.5 246.107 240.223 245.265C239.69 243.624 239.392 240.65 238.752 238.805C242.654 237.921 243.933 237.974 247.898 237.313C252.084 236.576 256.315 236.131 260.562 235.98C266.052 235.98 272.352 236.567 272.352 236.567C272.352 236.567 273.258 236.78 273.813 242.59C274.335 247.994 274.836 258.921 273.706 278.791Z" fill="black"/>
<path d="M258.238 242.163C251.288 241.279 249.199 238.304 249.199 238.304C253.601 234.147 249.945 226.93 249.945 226.93L258.313 228.497C258.115 229.66 258.005 230.836 257.983 232.015C257.919 237.1 260.211 237.142 260.211 237.142C261.682 239.85 258.238 242.163 258.238 242.163Z" fill="#EBB376"/>
<path opacity="0.2" d="M258.313 228.497C258.191 229.065 258.131 229.644 258.132 230.224L257.993 231.578L249.945 226.93L258.313 228.497Z" fill="black"/>
<path d="M266.553 224.531C266.479 224.787 266.415 225.032 266.329 225.267C265.338 228.316 263.195 230.181 259.422 230.267C258.874 230.287 258.325 230.265 257.78 230.203C257.428 230.203 257.055 230.117 256.714 230.053C243.837 227.921 243.219 204.555 255.648 203.862C263.11 203.446 265.764 207.337 266.735 215.023C267.247 218.177 267.186 221.399 266.553 224.531Z" fill="#EBB376"/>
<path d="M261.852 214.874C262.511 215.96 263.298 216.962 264.197 217.859C263.995 218.18 263.708 218.44 263.367 218.609C263.027 218.779 262.647 218.851 262.268 218.818L261.852 214.874Z" fill="#D58745"/>
<path d="M248.122 216.942C248.122 216.942 251.32 210.599 250.499 205.877C250.499 205.877 265.018 198.99 266.574 214.021C266.574 214.021 267.289 200.557 254.401 200.973C241.513 201.389 242.589 220.214 249.55 225.491C249.55 225.459 246.171 220.907 248.122 216.942Z" fill="#263238"/>
<path d="M249.444 218.455C249.325 217.593 248.868 216.814 248.175 216.288C247.481 215.762 246.607 215.533 245.745 215.652C243.432 216.025 242.547 220.854 248.431 221.685C249.252 221.803 249.678 220.971 249.444 218.455Z" fill="#EBB376"/>
<path d="M257.545 214.49C257.545 215.065 257.226 215.556 256.842 215.556C256.458 215.556 256.149 215.087 256.16 214.49C256.17 213.893 256.479 213.424 256.863 213.424C257.247 213.424 257.556 213.914 257.545 214.49Z" fill="#263238"/>
<path d="M256.703 213.467L257.961 212.987C257.961 212.987 257.332 214.031 256.703 213.467Z" fill="#263238"/>
<path d="M264.72 214.437C264.72 215.012 264.4 215.503 264.016 215.503C263.632 215.503 263.323 215.023 263.323 214.437C263.323 213.85 263.654 213.371 264.037 213.371C264.421 213.371 264.73 213.861 264.72 214.437Z" fill="#263238"/>
<path d="M263.878 213.413L265.135 212.934C265.135 212.934 264.496 213.978 263.878 213.413Z" fill="#263238"/>
<path d="M254.593 210.951C254.524 210.956 254.455 210.941 254.394 210.908C254.334 210.874 254.284 210.824 254.252 210.762C254.221 210.701 254.207 210.631 254.215 210.562C254.222 210.493 254.25 210.428 254.294 210.375C254.738 209.943 255.276 209.621 255.867 209.436C256.458 209.251 257.084 209.207 257.695 209.309C257.785 209.323 257.866 209.373 257.92 209.447C257.974 209.521 257.997 209.613 257.983 209.704C257.968 209.794 257.919 209.875 257.845 209.929C257.771 209.983 257.679 210.006 257.588 209.991C257.094 209.918 256.589 209.957 256.111 210.105C255.633 210.252 255.195 210.505 254.827 210.844C254.762 210.904 254.68 210.941 254.593 210.951Z" fill="#263238"/>
<path d="M265.562 210.535C265.479 210.542 265.395 210.52 265.327 210.471C264.987 210.191 264.589 209.989 264.161 209.88C263.734 209.771 263.287 209.758 262.854 209.842C262.767 209.869 262.672 209.861 262.59 209.819C262.508 209.777 262.446 209.705 262.417 209.618C262.39 209.531 262.398 209.436 262.44 209.354C262.482 209.273 262.554 209.21 262.641 209.181C263.177 209.057 263.734 209.057 264.269 209.181C264.805 209.305 265.305 209.549 265.732 209.895C265.807 209.951 265.857 210.033 265.871 210.125C265.885 210.217 265.862 210.311 265.807 210.386C265.78 210.427 265.744 210.463 265.701 210.488C265.659 210.514 265.611 210.53 265.562 210.535Z" fill="#263238"/>
<path d="M262.087 222.09C262.261 222.101 262.435 222.101 262.609 222.09C262.637 222.089 262.664 222.082 262.688 222.07C262.713 222.058 262.735 222.041 262.753 222.02C262.771 221.999 262.785 221.975 262.793 221.948C262.801 221.922 262.804 221.894 262.801 221.867C262.795 221.812 262.769 221.761 262.727 221.726C262.686 221.69 262.632 221.672 262.577 221.675C261.678 221.791 260.764 221.664 259.931 221.305C259.099 220.947 258.378 220.371 257.844 219.639C257.812 219.592 257.763 219.56 257.707 219.548C257.652 219.536 257.594 219.546 257.546 219.575C257.5 219.605 257.468 219.652 257.456 219.706C257.444 219.759 257.453 219.816 257.482 219.863C258.007 220.583 258.703 221.163 259.506 221.552C260.309 221.941 261.195 222.125 262.087 222.09Z" fill="#263238"/>
<path d="M252.844 199.95C256.106 199.843 259.347 200.512 262.3 201.9C266.393 204.118 266.564 207.518 266.564 207.518L265.135 206.985L262.3 204.672C262.688 205.384 262.886 206.185 262.876 206.996C262.876 206.996 261.991 205.098 260.744 204.789C260.901 205.256 260.921 205.758 260.802 206.236C260.683 206.714 260.43 207.148 260.072 207.486C259.812 206.51 259.225 205.652 258.409 205.056C258.409 205.056 258.622 206.122 256.49 207.486C256.52 206.983 256.425 206.48 256.213 206.022C256.001 205.564 255.679 205.166 255.275 204.864C255.275 204.864 254.209 206.804 252.844 207.103C252.844 207.103 253.91 206.122 253.687 205.546C252.52 206.598 251.064 207.274 249.508 207.486C247.173 207.71 244.114 202.764 252.844 199.95Z" fill="#263238"/>
<path opacity="0.2" d="M247.45 220.79C247.909 220.967 248.352 221.185 248.772 221.44C250.105 222.251 252.397 225.704 252.397 225.704C252.397 225.704 254.358 228.316 253.868 229.723C253.593 230.424 253.277 231.108 252.919 231.77L252.823 238.731L249.54 237.931L249.945 230.256L247.312 221.451C246.873 221.328 246.448 221.16 246.043 220.95C246.485 220.752 246.976 220.696 247.45 220.79Z" fill="black"/>
<path d="M252.557 234.52V231.322C252.914 231.171 253.213 230.907 253.405 230.57C253.598 230.232 253.674 229.841 253.623 229.457C253.431 228.103 248.293 221.632 247.866 221.451C247.44 221.27 243.24 222.517 243.123 222.517C243.005 222.517 245.255 228.977 249.636 231.311L249.902 235.234L252.557 234.52Z" fill="#EBB376"/>
<path d="M260.211 237.142H267.182L261.511 246.385L244.295 239.69L249.199 238.304L260.211 237.142Z" fill="#EBB376"/>
<path opacity="0.2" d="M255.915 261.948C254.412 263.601 246.875 259.337 243.293 255.872C242.366 251.747 242.867 253.943 240.756 246.886L244.551 244.082L247.141 245.884L247.578 240.969L248.549 241.342L248.826 238.411L247.76 238.709L247.888 237.27L248.954 237.089L253.697 240.82L253.857 243.41L254.923 243.816C254.923 243.816 257.908 259.774 255.915 261.948Z" fill="black"/>
<path d="M238.784 238.784C240.82 238.166 247.898 248.666 247.898 248.666L249.476 231.823L253.068 232.697C253.068 232.697 255.563 257.993 253.068 259.102C250.574 260.211 244.157 256.607 237.942 247.515C235.65 244.178 236.353 239.477 238.784 238.784Z" fill="#161A1D"/>
<path opacity="0.3" d="M238.784 238.784C240.82 238.166 247.898 248.666 247.898 248.666L249.476 231.823L253.068 232.697C253.068 232.697 255.563 257.993 253.068 259.102C250.574 260.211 244.157 256.607 237.942 247.515C235.65 244.178 236.353 239.477 238.784 238.784Z" fill="black"/>
</svg>
