<svg width="550" height="550" viewBox="0 0 550 550" fill="none" xmlns="http://www.w3.org/2000/svg">
<path d="M275 470.316C392.791 470.316 488.279 464.741 488.279 457.864C488.279 450.987 392.791 445.412 275 445.412C157.209 445.412 61.7211 450.987 61.7211 457.864C61.7211 464.741 157.209 470.316 275 470.316Z" fill="#F5F5F5"/>
<path d="M85.063 318.879H83.963V333.663H85.063V318.879Z" fill="#161A1D"/>
<path d="M85.063 338.063H83.963V344.179H85.063V338.063Z" fill="#161A1D"/>
<path d="M87.813 264.847H267.696V457.864H92.961C91.5986 457.864 90.292 457.323 89.3286 456.359C88.3652 455.396 87.824 454.089 87.824 452.727V264.847H87.813Z" fill="#161A1D"/>
<path opacity="0.2" d="M267.696 264.847H87.813V278.531H191.312L194.744 457.864L197.142 278.531H267.696V264.847Z" fill="black"/>
<path d="M86.262 235.51H267.696V274.626H86.262C85.5823 274.626 84.9303 274.356 84.4497 273.875C83.969 273.395 83.699 272.743 83.699 272.063V238.084C83.6975 237.747 83.7628 237.412 83.8909 237.1C84.0191 236.788 84.2076 236.504 84.4458 236.265C84.6839 236.025 84.967 235.836 85.2786 235.706C85.5903 235.577 85.9245 235.51 86.262 235.51Z" fill="#161A1D"/>
<path d="M157.08 457.864L155.199 235.51H194.315L196.185 457.864H157.08Z" fill="#263238"/>
<path d="M338.591 457.864H267.74V264.847H343.695L343.695 452.727C343.695 454.084 343.158 455.385 342.202 456.348C341.246 457.31 339.948 457.855 338.591 457.864Z" fill="#161A1D"/>
<path opacity="0.2" d="M338.591 457.864H267.74V264.847H343.695L343.695 452.727C343.695 454.084 343.158 455.385 342.202 456.348C341.246 457.31 339.948 457.855 338.591 457.864Z" fill="black"/>
<path opacity="0.2" d="M267.696 264.847H343.684V278.531H301.279L295.515 457.864L296.142 278.531H267.696V264.847Z" fill="black"/>
<path d="M345.246 274.626H267.696V235.51H345.246C345.583 235.51 345.916 235.576 346.227 235.705C346.538 235.834 346.82 236.023 347.058 236.261C347.296 236.499 347.485 236.781 347.614 237.092C347.743 237.403 347.809 237.736 347.809 238.073V272.052C347.811 272.389 347.745 272.724 347.617 273.036C347.489 273.348 347.3 273.632 347.062 273.871C346.824 274.111 346.541 274.3 346.229 274.43C345.918 274.559 345.584 274.626 345.246 274.626Z" fill="#161A1D"/>
<path opacity="0.2" d="M345.246 274.626H267.696V235.51H345.246C345.583 235.51 345.916 235.576 346.227 235.705C346.538 235.834 346.82 236.023 347.058 236.261C347.296 236.499 347.485 236.781 347.614 237.092C347.743 237.403 347.809 237.736 347.809 238.073V272.052C347.811 272.389 347.745 272.724 347.617 273.036C347.489 273.348 347.3 273.632 347.062 273.871C346.824 274.111 346.541 274.3 346.229 274.43C345.918 274.559 345.584 274.626 345.246 274.626Z" fill="black"/>
<path d="M295.515 457.864L298.793 235.51H323.202L319.924 457.864H295.515Z" fill="#263238"/>
<path opacity="0.2" d="M295.515 457.864L298.793 235.51H323.202L319.924 457.864H295.515Z" fill="black"/>
<path d="M308.253 161.7V161.645H276.254C274.412 161.798 272.615 162.291 270.952 163.097C238.502 176.693 222.728 212.322 215.754 235.466H248.49C248.49 235.466 325.963 159.5 308.253 161.7Z" fill="#263238"/>
<path opacity="0.5" d="M248.49 235.51C248.49 205.447 271.238 176.737 303.688 163.141C336.138 149.545 248.49 235.51 248.49 235.51Z" fill="black"/>
<path d="M316.613 180.741H292.864C291.348 180.871 289.863 181.243 288.464 181.841C260.48 191.939 238.557 218.394 226.732 235.576H251.042C251.042 235.576 330.396 179.091 316.613 180.741Z" fill="#263238"/>
<path opacity="0.5" d="M251.086 235.51C262.537 205.81 284.834 191.873 312.818 181.775C340.802 171.677 251.086 235.51 251.086 235.51Z" fill="black"/>
<path d="M156.695 152.317V152.251H124.619C124.031 152.24 123.451 152.386 122.939 152.674C122.426 152.962 122 153.382 121.704 153.89C111.694 169.213 154.704 209.396 185.977 235.499H218.713C218.713 235.499 170.753 149.82 156.695 152.317Z" fill="#263238"/>
<path opacity="0.5" d="M218.713 235.51C187.484 209.407 144.43 169.224 154.44 153.901C164.45 138.578 218.713 235.51 218.713 235.51Z" fill="black"/>
<path d="M190.135 173.8H166.331C165.851 173.812 165.379 173.926 164.946 174.134C164.514 174.343 164.131 174.641 163.823 175.01C153.219 186.395 176.847 216.238 194.623 235.609H218.9C218.9 235.609 201.08 171.886 190.135 173.8Z" fill="#263238"/>
<path opacity="0.5" d="M218.9 235.51C201.124 216.128 177.485 186.296 188.1 174.911C198.715 163.526 218.9 235.51 218.9 235.51Z" fill="black"/>
<path d="M422.972 441.749L431.376 439.032L427.328 418.858L418.924 421.564L422.972 441.749Z" fill="#FF8B7B"/>
<path d="M356.323 448.844H365.145L367.499 428.395H358.666L356.323 448.844Z" fill="#FF8B7B"/>
<path d="M365.992 447.821H355.223C355.05 447.821 354.883 447.881 354.75 447.992C354.618 448.102 354.528 448.256 354.497 448.426L353.1 456.28C353.07 456.474 353.082 456.673 353.136 456.862C353.19 457.051 353.285 457.226 353.414 457.375C353.543 457.524 353.703 457.642 353.882 457.723C354.061 457.804 354.256 457.844 354.453 457.842C357.918 457.787 360.437 457.578 364.804 457.578C367.488 457.578 375.584 457.864 379.291 457.864C382.998 457.864 383.328 454.201 381.799 453.86C374.935 452.375 369.699 450.329 367.499 448.36C367.082 447.998 366.544 447.805 365.992 447.821Z" fill="#263238"/>
<path d="M431.002 438.086L421.817 441.1C421.651 441.154 421.508 441.263 421.412 441.409C421.316 441.555 421.273 441.729 421.289 441.903L422.037 449.911C422.055 450.105 422.117 450.292 422.217 450.458C422.318 450.624 422.455 450.766 422.618 450.871C422.781 450.977 422.965 451.045 423.158 451.069C423.351 451.093 423.547 451.073 423.731 451.011C427.031 449.911 431.75 448.151 435.908 446.809C440.77 445.236 443.663 444.444 449.361 442.596C452.815 441.496 452.661 437.69 451.099 437.844C444.059 438.526 440.099 439.813 433.235 438.141C432.511 437.909 431.736 437.89 431.002 438.086Z" fill="#263238"/>
<path d="M386.738 180.928C387.838 183.403 389.07 186.076 390.302 188.628C391.534 191.18 392.788 193.765 394.108 196.273C395.428 198.781 396.726 201.3 398.134 203.709C399.542 206.118 400.972 208.494 402.479 210.771C403.249 211.871 403.997 212.971 404.811 214.005L406.01 215.534C406.231 215.837 406.478 216.12 406.747 216.381C407.132 216.786 407.601 217.102 408.122 217.305C408.831 217.535 409.583 217.603 410.322 217.503C412.574 217.101 414.728 216.272 416.669 215.061C417.769 214.423 418.869 213.686 419.969 212.916C421.069 212.146 422.169 211.255 423.181 210.496L428.285 214.709C427.414 216.088 426.451 217.408 425.403 218.658C424.361 219.919 423.233 221.106 422.026 222.211C420.769 223.389 419.406 224.449 417.956 225.379C416.361 226.427 414.629 227.249 412.808 227.821C410.68 228.509 408.426 228.715 406.208 228.426C403.83 228.109 401.565 227.218 399.608 225.83C398.71 225.19 397.871 224.473 397.1 223.685L395.439 221.859C394.339 220.649 393.36 219.395 392.337 218.152C388.622 213.209 385.276 208 382.327 202.565C380.864 199.892 379.467 197.208 378.169 194.469C376.871 191.73 375.606 189.046 374.418 186.109L386.738 180.928Z" fill="#FF8B7B"/>
<path d="M370.579 181.72C369.006 190.003 379.302 201.85 379.302 201.85L394.427 195.338C394.427 195.338 392.854 185.845 386.815 178.992C379.412 170.599 372.306 172.7 370.579 181.72Z" fill="#161A1D"/>
<path opacity="0.2" d="M378.752 184.646C374.627 183.172 371.58 183.656 370.48 184.646C371.228 192.522 379.28 201.806 379.28 201.806L389.994 197.197C389.202 193.534 385.209 187 378.752 184.646Z" fill="black"/>
<path d="M421.905 212.355L426.734 202.18L433.51 209.264C433.51 209.264 431.585 217.382 425.238 216.348L421.905 212.355Z" fill="#FF8B7B"/>
<path d="M430.606 197.395L435.853 203.896L433.51 209.264L426.734 202.18L430.606 197.395Z" fill="#FF8B7B"/>
<path opacity="0.2" d="M427.328 418.858L429.418 429.264L421.003 431.97L418.924 421.575L427.328 418.858Z" fill="black"/>
<path opacity="0.2" d="M358.666 428.406H367.499L366.289 438.944H357.445L358.666 428.406Z" fill="black"/>
<path d="M330.957 181.841C343.684 214.302 345.257 249.92 346.797 257.004L393.338 248.93C394.438 205.062 383.438 180.818 380.49 175.131C380.278 174.724 379.964 174.378 379.578 174.13C379.193 173.881 378.748 173.737 378.29 173.712C376.992 173.624 374.99 173.525 372.526 173.514C371.228 173.514 369.831 173.514 368.379 173.591C367.576 173.591 366.762 173.679 365.948 173.734C359.288 174.502 352.677 175.652 346.148 177.177C344.916 177.452 343.662 177.76 342.452 178.079C341.242 178.398 340.252 178.706 339.152 179.025C334.554 180.4 330.957 181.841 330.957 181.841Z" fill="#161A1D"/>
<path opacity="0.2" d="M335.5 194.898C337.04 199.98 338.36 205.04 339.471 209.946C340.934 201.069 341.583 191.95 341.583 191.95L335.5 194.898Z" fill="black"/>
<path d="M344.399 154.693C346.742 160.842 350.02 172.293 346.302 177.309C350.35 180.147 355.564 183.337 363.165 182.292C370.766 181.247 368.555 176.275 366.08 173.877C358.688 173.415 357.962 168.113 358.38 162.954L344.399 154.693Z" fill="#FF8B7B"/>
<path d="M368.115 184.393C368.115 184.393 374 179.069 367.554 173.514C366.713 173.46 365.868 173.549 365.057 173.778C365.057 173.778 372.284 179.96 364.056 182.138C357.784 181.748 351.689 179.898 346.258 176.737C345.601 176.882 344.973 177.135 344.399 177.485C346.665 182.028 362.065 185.592 362.065 185.592C362.21 184.874 362.458 184.181 362.802 183.535C364.315 187.783 365.485 192.146 366.3 196.581C367.339 196.426 368.364 196.194 369.369 195.888C368.515 191.51 367.413 187.184 366.069 182.93C366.826 183.304 367.516 183.798 368.115 184.393Z" fill="white"/>
<path opacity="0.2" d="M350.075 158.07L358.325 162.954C358.226 164.158 358.226 165.369 358.325 166.573C355.553 166.65 351.307 164.318 350.526 161.524C350.173 160.408 350.02 159.239 350.075 158.07Z" fill="black"/>
<path d="M360.877 146.025C367.345 143.561 366.674 127.017 356.719 129.459C349.987 131.109 350.68 133.144 351.912 137.467C353.144 141.79 356.785 147.587 360.877 146.025Z" fill="#263238"/>
<path d="M341.979 145.255C344.003 153.78 344.751 158.873 349.877 162.536C357.577 168.036 367.477 162.261 368.093 153.307C368.599 145.244 365.2 132.649 356.169 130.691C354.18 130.247 352.111 130.319 350.157 130.901C348.204 131.482 346.432 132.554 345.01 134.014C343.588 135.473 342.563 137.272 342.032 139.24C341.502 141.208 341.483 143.278 341.979 145.255Z" fill="#FF8B7B"/>
<path d="M343.2 151.437C349.668 148.973 347.182 132.737 337.227 135.212C330.495 136.862 331.661 140.712 333.553 144.496C335.588 148.5 339.141 152.999 343.2 151.437Z" fill="#263238"/>
<path d="M357.984 122.749C356.301 118.448 347.534 115.346 345.939 123.706C338.569 123.211 321.013 137.478 341.858 137.423C352.165 140.019 367.433 134.343 367.664 128.37C367.895 122.397 360.514 120.241 357.984 122.749Z" fill="#263238"/>
<path d="M339.79 153.494C340.9 155.184 342.631 156.37 344.608 156.794C347.182 157.3 348.172 154.869 347.204 152.471C346.335 150.271 343.904 147.466 341.484 148.071C339.064 148.676 338.404 151.404 339.79 153.494Z" fill="#FF8B7B"/>
<path d="M431.937 426.305L417.703 430.892C417.703 430.892 403.546 379.599 398.2 352.616C396.561 344.399 392.029 333.916 388.014 321.816C382.943 306.603 376.849 290.224 371.932 277.409C366.74 263.912 362.912 254.221 362.912 254.221L393.349 248.93C393.349 248.93 419.584 320.001 423.236 346.698C427.031 374.462 431.937 426.305 431.937 426.305Z" fill="#263238"/>
<path opacity="0.2" d="M388.003 321.816C382.932 306.603 376.838 290.224 371.921 277.409L374.407 270.193C382.976 278.487 387.915 306.394 388.003 321.816Z" fill="black"/>
<path d="M378.84 251.449C378.84 251.449 381.315 327.481 380.215 353.32C379.005 381.634 370.37 436.92 370.37 436.92H354.2C354.2 436.92 357.808 386.793 357.5 359.172C357.115 327.712 346.852 257.026 346.852 257.026L378.84 251.449Z" fill="#263238"/>
<path d="M372.306 437.25H353.254V431.563L374.55 431.189L372.306 437.25Z" fill="#161A1D"/>
<path d="M433.829 426.063L416.878 431.53L415.107 426.052L433.972 419.65L433.829 426.063Z" fill="#161A1D"/>
<path d="M355.465 145.387C355.586 146.091 356.059 146.597 356.565 146.487C357.071 146.377 357.291 145.772 357.17 145.068C357.049 144.364 356.576 143.869 356.07 143.968C355.564 144.067 355.3 144.694 355.465 145.387Z" fill="#263238"/>
<path d="M363.396 144.012C363.517 144.716 363.99 145.222 364.496 145.112C365.002 145.002 365.222 144.397 365.101 143.693C364.98 142.989 364.507 142.483 364.056 142.593C363.605 142.703 363.275 143.308 363.396 144.012Z" fill="#263238"/>
<path d="M360.932 144.804C362.141 146.803 363.622 148.625 365.332 150.216C364.912 150.642 364.404 150.972 363.844 151.183C363.283 151.394 362.684 151.481 362.087 151.437L360.932 144.804Z" fill="#FF5652"/>
<path d="M359.458 153.824C358.653 153.871 357.847 153.751 357.09 153.473C356.333 153.195 355.641 152.764 355.058 152.207C355.038 152.188 355.023 152.165 355.012 152.139C355.001 152.114 354.996 152.086 354.996 152.059C354.996 152.031 355.001 152.004 355.012 151.978C355.023 151.953 355.038 151.93 355.058 151.91C355.098 151.873 355.151 151.853 355.206 151.853C355.261 151.853 355.314 151.873 355.355 151.91C356.006 152.511 356.79 152.949 357.642 153.19C358.495 153.431 359.392 153.467 360.261 153.296C360.316 153.29 360.372 153.304 360.416 153.337C360.461 153.369 360.492 153.418 360.503 153.472C360.513 153.526 360.501 153.582 360.47 153.627C360.439 153.672 360.392 153.704 360.338 153.714C360.047 153.769 359.753 153.805 359.458 153.824Z" fill="#263238"/>
<path d="M352.572 143.253C352.507 143.268 352.439 143.268 352.374 143.253C352.277 143.201 352.203 143.114 352.168 143.01C352.134 142.905 352.14 142.792 352.187 142.692C352.479 142.081 352.914 141.549 353.457 141.143C353.999 140.737 354.631 140.468 355.3 140.36C355.411 140.348 355.522 140.381 355.608 140.451C355.695 140.521 355.75 140.623 355.762 140.734C355.774 140.845 355.741 140.956 355.671 141.042C355.601 141.129 355.499 141.184 355.388 141.196C354.872 141.288 354.385 141.502 353.968 141.819C353.551 142.137 353.216 142.549 352.99 143.022C352.954 143.1 352.894 143.164 352.818 143.205C352.743 143.247 352.657 143.263 352.572 143.253Z" fill="#263238"/>
<path d="M366.3 140.69C366.231 140.694 366.162 140.681 366.098 140.652C366.035 140.624 365.98 140.58 365.937 140.525C365.645 140.089 365.253 139.729 364.794 139.474C364.335 139.22 363.822 139.078 363.297 139.062C363.185 139.065 363.076 139.024 362.994 138.948C362.912 138.872 362.863 138.767 362.857 138.655C362.854 138.546 362.894 138.44 362.968 138.36C363.042 138.28 363.144 138.232 363.253 138.226C363.918 138.235 364.57 138.404 365.156 138.718C365.742 139.032 366.244 139.482 366.619 140.03C366.684 140.119 366.712 140.23 366.695 140.34C366.679 140.449 366.62 140.547 366.531 140.613C366.464 140.663 366.383 140.69 366.3 140.69Z" fill="#263238"/>
<path d="M368.973 449.372C368.19 449.35 367.412 449.243 366.652 449.053C366.61 449.043 366.572 449.021 366.543 448.989C366.514 448.958 366.494 448.919 366.487 448.877C366.478 448.837 366.482 448.796 366.498 448.758C366.514 448.721 366.541 448.689 366.575 448.668C366.883 448.47 369.666 446.721 370.656 447.216C370.768 447.271 370.862 447.355 370.93 447.46C370.998 447.564 371.036 447.685 371.041 447.81C371.075 448.011 371.057 448.217 370.99 448.409C370.922 448.602 370.808 448.774 370.656 448.91C370.164 449.251 369.57 449.414 368.973 449.372ZM367.246 448.756C368.753 449.053 369.908 448.998 370.37 448.591C370.476 448.501 370.555 448.383 370.6 448.252C370.644 448.12 370.652 447.979 370.623 447.843C370.626 447.791 370.615 447.74 370.589 447.695C370.564 447.65 370.526 447.613 370.48 447.59C369.963 447.326 368.379 448.085 367.246 448.8V448.756Z" fill="#161A1D"/>
<path d="M366.696 449.053C366.66 449.063 366.622 449.063 366.586 449.053C366.554 449.035 366.527 449.007 366.509 448.974C366.492 448.941 366.484 448.903 366.487 448.866C366.487 448.756 366.597 446.204 367.587 445.368C367.706 445.263 367.846 445.185 367.998 445.14C368.15 445.094 368.31 445.082 368.467 445.104C368.625 445.103 368.779 445.155 368.903 445.253C369.027 445.351 369.114 445.489 369.149 445.643C369.38 446.633 367.697 448.569 366.795 449.064L366.696 449.053ZM368.335 445.478C368.248 445.477 368.161 445.492 368.08 445.524C367.999 445.556 367.925 445.604 367.862 445.665C367.271 446.465 366.948 447.432 366.938 448.426C367.818 447.733 368.885 446.226 368.742 445.698C368.742 445.643 368.742 445.511 368.434 445.478H368.335Z" fill="#161A1D"/>
<path d="M432.201 438.977C432.161 438.978 432.122 438.967 432.089 438.945C432.056 438.924 432.029 438.893 432.014 438.856C431.99 438.822 431.977 438.782 431.977 438.741C431.977 438.699 431.99 438.659 432.014 438.625C432.333 438.295 435.16 435.501 436.414 435.732C436.527 435.756 436.632 435.808 436.721 435.883C436.809 435.958 436.877 436.053 436.92 436.161C436.999 436.336 437.034 436.528 437.022 436.719C437.011 436.911 436.953 437.097 436.854 437.261C436.194 438.361 433.675 438.823 432.245 438.988L432.201 438.977ZM436.238 436.139C435.534 436.139 433.928 437.415 432.806 438.482C434.753 438.185 436.106 437.657 436.48 437.041C436.54 436.929 436.571 436.805 436.571 436.678C436.571 436.551 436.54 436.427 436.48 436.315C436.469 436.272 436.446 436.233 436.412 436.204C436.379 436.174 436.337 436.155 436.293 436.15L436.238 436.139Z" fill="#161A1D"/>
<path d="M432.201 438.977H432.146C432.11 438.969 432.076 438.95 432.051 438.922C432.025 438.895 432.009 438.86 432.003 438.823C432.003 438.724 431.475 436.392 432.256 435.171C432.366 434.992 432.512 434.837 432.684 434.716C432.856 434.595 433.051 434.511 433.257 434.467C433.818 434.346 434.071 434.577 434.17 434.786C434.632 435.688 433.213 438.152 432.344 438.933C432.303 438.963 432.252 438.979 432.201 438.977ZM433.554 434.841H433.345C433.193 434.871 433.048 434.932 432.921 435.021C432.794 435.11 432.688 435.225 432.608 435.358C432.216 436.29 432.124 437.32 432.344 438.306C433.169 437.349 434.082 435.479 433.807 434.94C433.779 434.901 433.74 434.871 433.695 434.854C433.65 434.836 433.601 434.832 433.554 434.841Z" fill="#161A1D"/>
<path d="M341.704 192.786C340.604 195.316 339.504 198.044 338.404 200.717C337.304 203.39 336.292 206.085 335.313 208.791C334.334 211.497 333.366 214.181 332.53 216.887C331.694 219.593 330.902 222.288 330.264 224.95C329.967 226.281 329.648 227.612 329.45 228.91L329.274 229.889V230.131V230.065C329.274 230.01 329.274 229.922 329.274 229.845C329.223 229.515 329.074 229.208 328.845 228.965C328.515 228.756 328.999 229.383 329.857 229.801C330.881 230.325 331.948 230.76 333.047 231.099C338.458 232.53 343.976 233.519 349.547 234.058L349.899 240.658C346.815 241.241 343.695 241.609 340.56 241.758C337.314 241.946 334.058 241.824 330.836 241.395C329.017 241.158 327.228 240.726 325.501 240.108C324.463 239.733 323.465 239.258 322.52 238.689C321.287 237.948 320.202 236.986 319.319 235.851C318.206 234.397 317.514 232.666 317.317 230.846C317.29 230.403 317.29 229.958 317.317 229.515V228.888V228.58L317.438 227.348C317.57 225.687 317.823 224.103 318.065 222.497C319.183 216.342 320.757 210.279 322.773 204.358C323.774 201.443 324.797 198.561 325.952 195.712C327.107 192.863 328.229 190.091 329.604 187.198L341.704 192.786Z" fill="#FF8B7B"/>
<path d="M330.957 181.841C326.381 184.316 323.202 199.188 323.202 199.188L336.732 207.504C336.732 207.504 340.241 200.629 342.815 194.975C347.743 184.162 339.955 176.979 330.957 181.841Z" fill="#161A1D"/>
<path d="M348.337 233.915L357.236 233.53L353.287 242C353.287 242 344.905 241.494 346.016 237.479L348.337 233.915Z" fill="#FF8B7B"/>
<path d="M363.099 239.36L358.666 244.882L353.298 241.956L357.236 233.519L363.099 239.36Z" fill="#FF8B7B"/>
</svg>
